<?xml version="1.0" standalone="no"?>
<!DOCTYPE svg PUBLIC "-//W3C//DTD SVG 20010904//EN"
 "http://www.w3.org/TR/2001/REC-SVG-20010904/DTD/svg10.dtd">
<svg version="1.0" xmlns="http://www.w3.org/2000/svg"
 width="622.000000pt" height="678.000000pt" viewBox="0 0 622.000000 678.000000"
 preserveAspectRatio="xMidYMid meet">

<g transform="translate(0.000000,678.000000) scale(0.100000,-0.100000)"
fill="#000000" stroke="none">
<path d="M4643 6711 c-44 -11 -118 -56 -141 -86 l-20 -25 -57 26 c-56 26 -62
27 -189 21 -133 -6 -386 -46 -428 -68 -44 -22 -68 -53 -83 -103 -21 -69 -43
-210 -51 -329 l-7 -97 38 -36 c37 -35 222 -161 258 -176 27 -11 13 -24 -34
-32 -128 -21 -254 -125 -293 -243 -30 -94 -24 -234 14 -319 12 -25 20 -47 18
-49 -2 -2 -28 4 -58 14 -30 10 -107 29 -170 42 -152 31 -458 34 -615 5 -282
-51 -529 -173 -704 -346 -90 -88 -101 -102 -162 -195 -234 -358 -278 -803
-116 -1155 52 -114 134 -226 307 -425 245 -281 319 -415 307 -551 -11 -119
-72 -204 -231 -324 -116 -87 -278 -161 -408 -186 -102 -20 -304 -14 -388 12
-245 74 -346 244 -295 496 22 105 53 184 127 317 122 219 132 246 131 344 0
80 -3 93 -36 159 -20 40 -35 73 -34 74 5 3 189 101 239 127 99 50 104 59 111
173 6 88 10 268 8 301 -1 17 -73 52 -226 108 -181 68 -217 69 -393 15 -151
-46 -352 -115 -394 -137 -21 -10 -28 -21 -28 -43 0 -25 -4 -30 -25 -30 -30 0
-87 -55 -117 -113 -17 -33 -22 -65 -26 -147 -8 -206 51 -282 273 -350 208 -63
325 -169 310 -280 -7 -53 -33 -106 -110 -225 -152 -235 -225 -456 -225 -681 0
-111 14 -177 55 -260 31 -62 125 -174 146 -174 4 0 14 -6 22 -14 29 -29 169
-95 264 -124 195 -60 418 -62 658 -5 136 32 201 56 358 133 68 33 128 60 134
60 7 0 15 -26 18 -58 4 -31 10 -82 15 -112 4 -30 7 -93 6 -140 -4 -179 -91
-259 -303 -277 -160 -13 -333 49 -598 215 -66 41 -153 91 -193 109 -185 86
-364 80 -511 -18 -149 -99 -234 -264 -225 -437 6 -110 60 -217 159 -316 153
-154 382 -153 424 1 26 93 9 131 -98 212 -91 70 -121 111 -121 169 0 33 6 45
30 66 58 48 115 43 255 -26 83 -40 33 0 -59 47 -54 28 -80 35 -123 35 -93 0
-153 -51 -153 -130 0 -57 31 -111 92 -162 120 -100 139 -138 103 -208 -20 -39
-43 -50 -104 -50 -71 0 -134 32 -207 106 -68 68 -108 141 -125 226 -38 187
111 415 302 464 132 34 262 -2 459 -127 55 -35 108 -68 118 -74 9 -5 31 -19
47 -31 54 -38 222 -115 281 -130 33 -8 70 -17 84 -21 55 -14 234 -5 301 15 85
25 172 81 202 129 46 73 56 124 52 251 -4 130 -5 137 -39 307 -32 158 -31 280
3 345 41 78 155 181 254 230 80 40 95 44 165 44 42 1 91 -2 107 -6 l30 -7 -30
14 c-48 23 -164 19 -238 -8 -168 -61 -318 -194 -368 -327 -18 -49 -28 -174
-17 -220 4 -14 -113 -83 -205 -121 -146 -61 -395 -116 -568 -125 -140 -8 -249
6 -368 48 -168 59 -287 139 -354 240 -51 78 -67 142 -67 277 0 211 41 369 148
571 128 242 123 232 129 316 6 94 -8 134 -68 199 -56 60 -112 91 -232 127
-139 41 -181 66 -214 131 -23 45 -26 65 -27 147 0 55 5 111 13 133 22 64 97
136 98 95 3 -106 17 -282 24 -311 10 -38 61 -83 142 -127 68 -36 187 -112 187
-119 0 -4 6 -8 13 -9 107 -16 85 -21 252 53 49 22 50 22 63 3 33 -46 54 -132
50 -203 -4 -80 -21 -119 -110 -262 -81 -128 -142 -260 -174 -371 -22 -79 -26
-108 -22 -186 3 -80 8 -102 37 -160 66 -135 192 -224 369 -261 84 -17 247 -20
342 -5 241 39 485 187 609 370 60 89 73 132 73 240 -1 172 -46 260 -292 571
-150 188 -205 269 -258 379 -146 304 -142 640 11 964 106 223 246 377 460 505
82 49 266 122 341 135 16 3 52 10 80 15 160 31 400 30 601 -4 82 -13 361 -107
375 -126 3 -3 27 -16 54 -29 49 -22 188 -107 216 -132 9 -8 32 -26 51 -41 20
-15 68 -59 108 -98 211 -208 301 -422 301 -719 0 -261 -136 -558 -356 -775
-106 -105 -99 -99 -275 -238 -199 -157 -290 -262 -370 -431 -33 -70 -64 -166
-54 -166 2 0 18 29 36 65 32 66 135 193 217 269 69 64 162 127 174 120 6 -4 8
-3 4 4 -3 6 10 23 31 39 21 15 54 42 73 60 19 17 57 48 84 69 71 53 71 53 139
120 64 63 149 159 156 176 2 6 23 39 48 75 178 261 232 566 159 902 -33 150
-171 369 -322 511 -79 74 -224 185 -287 219 -116 64 -205 109 -235 119 -38 13
-50 39 -64 140 -12 86 2 201 31 268 38 84 144 174 247 208 l52 17 87 -51 c48
-27 92 -50 96 -50 17 0 8 -12 -51 -66 -35 -33 -70 -77 -86 -110 -24 -49 -26
-63 -21 -124 3 -38 13 -83 23 -102 39 -77 200 -288 329 -433 104 -116 225
-267 225 -281 0 -7 4 -14 9 -16 9 -3 63 -86 105 -162 39 -69 69 -154 60 -167
-4 -7 -3 -9 3 -6 10 6 35 -66 52 -148 3 -16 6 -111 6 -210 0 -161 -3 -187 -23
-250 -33 -99 -83 -223 -107 -266 -120 -217 -254 -383 -557 -690 -238 -241
-401 -389 -430 -389 -13 0 -44 -7 -70 -14 -46 -14 -47 -14 -63 11 -21 31 -30
25 -14 -10 10 -23 8 -28 -25 -58 -55 -48 -80 -102 -81 -175 0 -51 4 -66 28
-97 37 -48 108 -89 157 -91 49 -1 88 27 115 82 20 41 21 42 40 24 39 -35 122
-80 195 -105 73 -25 75 -27 93 -74 11 -29 18 -72 18 -108 -1 -70 -2 -78 -21
-128 l-14 -38 -79 2 c-393 10 -656 197 -721 511 -9 42 -16 104 -16 138 0 33
-4 60 -10 60 -5 0 -10 -25 -10 -55 0 -41 -6 -63 -24 -90 -58 -84 -96 -226 -96
-354 0 -145 51 -268 157 -379 68 -71 119 -104 211 -137 58 -21 81 -24 172 -21
115 3 189 23 290 80 72 40 180 148 209 210 49 106 47 222 -5 333 -63 133 -260
276 -401 290 l-58 6 28 -32 c19 -24 27 -44 27 -72 0 -132 -124 -162 -219 -54
-26 30 -31 44 -31 88 0 71 45 141 115 176 43 22 61 26 145 25 114 0 180 -18
304 -80 118 -60 168 -95 243 -172 68 -70 105 -127 135 -212 27 -78 33 -121 32
-235 -2 -246 -116 -422 -352 -543 -100 -52 -136 -61 -170 -42 -41 22 -204 94
-287 126 -104 40 -104 40 -305 -27 -63 -22 -122 -39 -133 -39 -24 0 -124 77
-177 137 -56 64 -151 206 -189 284 -45 94 -61 169 -68 316 -9 203 19 335 96
447 18 25 29 46 26 46 -22 0 -113 -59 -163 -104 -86 -81 -116 -151 -116 -276
-1 -80 6 -121 42 -260 81 -316 92 -444 51 -567 -18 -56 -33 -79 -83 -129 -65
-64 -155 -120 -246 -150 -76 -26 -276 -26 -375 0 -245 64 -383 135 -645 334
-119 90 -117 89 -95 63 37 -44 299 -264 371 -311 39 -25 111 -66 160 -89 49
-24 97 -47 106 -52 54 -27 190 -51 293 -52 177 -1 302 41 443 148 128 98 183
214 183 386 l1 96 81 -80 c104 -102 152 -141 217 -176 l53 -29 -49 -24 c-42
-21 -50 -30 -57 -64 -10 -48 -2 -164 20 -263 12 -58 23 -82 47 -106 54 -54
173 -138 415 -295 206 -132 238 -150 264 -144 28 6 468 262 495 288 13 13 27
164 27 301 l0 70 -155 78 c-85 43 -156 81 -158 85 -1 4 24 17 56 30 173 67
334 231 403 410 l24 62 68 0 c194 0 488 76 664 172 104 57 133 78 208 154 57
58 84 96 116 162 24 47 46 102 50 122 4 19 13 55 19 80 8 29 12 159 13 365 l2
320 -90 30 c-78 26 -98 38 -148 88 -64 62 -150 115 -243 148 -88 32 -271 32
-374 0 -97 -30 -162 -67 -227 -131 -54 -52 -123 -156 -123 -183 0 -10 -19 -21
-55 -31 -50 -15 -55 -19 -61 -52 -7 -39 3 -276 16 -342 4 -23 15 -51 25 -62
23 -26 165 -98 304 -155 63 -26 125 -54 138 -62 33 -22 86 -11 243 52 74 29
136 52 138 50 10 -10 -63 -116 -114 -167 -96 -96 -228 -149 -421 -168 -171
-17 -165 -18 -195 43 -80 163 -254 312 -458 391 -85 33 -136 45 -193 47 -26 1
-46 5 -45 9 2 4 64 58 138 120 391 327 714 666 853 895 72 118 136 293 155
425 15 100 6 312 -17 405 -72 297 -196 484 -546 830 -277 273 -325 335 -325
418 0 87 72 197 164 251 38 22 47 24 74 14 24 -9 42 -8 89 5 32 8 130 32 218
53 88 20 204 52 258 72 103 36 117 49 117 107 0 14 17 41 41 67 98 102 145
217 135 326 -14 146 -149 356 -271 420 -40 20 -67 26 -135 28 -47 2 -99 -1
-117 -5z m194 -52 c113 -42 224 -200 254 -361 11 -58 10 -72 -9 -134 -12 -38
-31 -82 -43 -99 l-20 -30 5 30 c13 74 17 192 8 216 -8 19 -36 39 -99 73 -291
153 -423 228 -423 243 0 15 54 53 99 69 57 21 162 17 228 -7z m-377 -113 c47
-27 114 -65 150 -84 36 -19 90 -49 120 -67 30 -18 88 -49 128 -70 40 -21 70
-40 68 -42 -5 -6 -70 -17 -349 -64 l-187 -32 -153 88 c-83 48 -214 129 -290
179 l-137 91 37 7 c101 20 358 46 438 45 88 -2 92 -3 175 -51z m-616 -84 c34
-22 113 -71 176 -109 254 -156 296 -182 314 -196 17 -13 18 -19 6 -83 -16 -92
-39 -337 -33 -348 9 -14 -40 5 -97 39 -30 18 -77 45 -105 60 -95 52 -330 194
-359 218 l-28 23 16 154 c17 169 35 280 44 280 3 0 33 -17 66 -38z m-2444
-2320 c52 -21 116 -47 143 -56 26 -10 47 -21 47 -25 0 -4 -55 -30 -122 -56
-68 -27 -184 -75 -258 -107 l-134 -57 -61 33 c-33 18 -115 62 -183 96 l-123
63 53 22 c29 12 107 38 173 59 66 21 145 46 175 57 85 29 173 20 290 -29z
m210 -276 l0 -154 -47 -31 c-25 -17 -50 -31 -54 -31 -4 0 -40 -19 -81 -43 -40
-24 -131 -72 -203 -108 -71 -35 -132 -65 -135 -66 -3 -2 -4 82 -2 186 l3 188
157 66 c86 36 200 84 252 106 52 22 98 41 103 41 4 0 7 -69 7 -154z m3529
-856 c234 -65 398 -242 450 -485 20 -93 23 -120 23 -220 0 -285 -91 -476 -297
-619 -38 -27 -94 -60 -125 -73 -30 -14 -75 -34 -99 -45 -155 -70 -550 -167
-527 -129 11 17 8 201 -3 239 -8 27 -7 32 7 33 321 11 479 65 621 210 161 166
207 425 111 635 -90 200 -355 331 -494 245 -17 -11 -83 -31 -145 -46 -63 -14
-119 -28 -123 -31 -14 -9 -8 30 12 73 42 93 170 186 298 217 86 21 205 19 291
-4z m-71 -264 c65 -40 159 -133 146 -146 -5 -4 -79 -31 -164 -61 l-155 -53
-45 16 c-25 9 -79 30 -120 46 -41 17 -112 42 -158 56 -45 14 -94 33 -108 43
l-27 17 29 8 c16 5 97 24 179 43 83 20 182 44 220 55 90 25 130 21 203 -24z
m562 17 c5 -5 -21 -23 -35 -23 -6 0 -16 9 -23 21 -13 20 -12 21 20 14 18 -4
35 -9 38 -12z m30 -81 c0 -27 -3 -52 -7 -55 -6 -6 -43 65 -43 83 0 7 17 15 43
19 4 0 7 -21 7 -47z m-396 -178 c24 -64 31 -194 14 -258 -11 -41 -18 -51 -43
-58 -29 -9 -103 -38 -234 -92 -35 -15 -65 -25 -66 -24 -4 5 -8 175 -7 284 l2
101 63 19 c34 10 100 33 147 51 47 18 89 31 95 29 5 -1 18 -25 29 -52z m-2392
-366 c-66 -96 -124 -244 -136 -343 -7 -61 -7 -62 -16 -35 -4 14 -8 60 -9 102
-1 111 25 176 105 256 72 72 98 81 56 20z m1016 -109 c61 -30 183 -131 171
-143 -14 -15 -253 125 -291 172 -12 14 -9 15 22 9 19 -4 63 -21 98 -38z m-608
-59 c19 -142 73 -277 138 -345 105 -110 257 -179 467 -211 17 -2 39 -6 50 -8
11 -3 37 -5 58 -5 20 -1 37 -4 37 -8 -1 -16 -98 -82 -155 -106 -177 -73 -339
-58 -476 43 -179 133 -255 343 -201 555 20 80 59 181 66 174 3 -2 10 -42 16
-89z m358 -928 c51 -35 218 -120 347 -177 72 -31 164 -73 205 -93 l75 -37
-136 -66 c-75 -37 -162 -83 -193 -103 -31 -20 -59 -36 -62 -36 -3 0 -30 16
-60 35 -30 20 -146 81 -257 136 -221 110 -376 198 -377 214 0 6 78 35 173 65
94 29 186 60 202 67 41 17 53 16 83 -5z m-413 -202 c119 -78 243 -149 412
-236 95 -49 183 -97 195 -106 22 -16 23 -22 23 -191 l0 -173 -60 34 c-33 20
-112 69 -175 110 -314 205 -433 287 -440 306 -9 21 -30 214 -30 269 0 15 3 27
8 26 4 0 34 -18 67 -39z"/>
<path d="M2703 3382 c-130 -46 -193 -134 -193 -268 0 -100 36 -161 119 -200
105 -50 258 -20 333 65 172 196 -16 490 -259 403z m49 -14 c-31 -31 11 -98 62
-98 30 0 66 27 66 51 0 26 12 24 44 -6 123 -114 61 -331 -108 -380 -105 -31
-211 5 -256 86 -20 36 -25 57 -24 114 2 130 67 209 199 238 11 3 22 5 25 6 2
0 -1 -4 -8 -11z"/>
<path d="M3238 3303 c-129 -49 -194 -140 -192 -270 1 -97 35 -154 114 -196 50
-26 62 -29 135 -25 119 7 197 55 247 152 29 56 30 156 4 210 -58 116 -192 172
-308 129z m43 -27 c-10 -12 -10 -21 1 -43 26 -55 120 -53 134 4 8 30 15 29 46
-4 106 -114 71 -297 -68 -362 -89 -42 -222 -25 -276 36 -62 68 -64 207 -5 294
24 36 90 78 141 89 37 8 43 5 27 -14z"/>
</g>
</svg>
