<?xml version="1.0" encoding="UTF-8"?>
<svg version="1.1" xmlns="http://www.w3.org/2000/svg" width="225" height="225">
<path d="M0 0 C74.25 0 148.5 0 225 0 C225 74.25 225 148.5 225 225 C150.75 225 76.5 225 0 225 C0 150.75 0 76.5 0 0 Z " fill="#68217A" transform="translate(0,0)"/>
<path d="M0 0 C1.69930848 1.29147445 3.38707631 2.6021328 5 4 C4.6875 5.875 4.6875 5.875 4 8 C3.01 8.66 2.02 9.32 1 10 C0.5153125 9.61328125 0.030625 9.2265625 -0.46875 8.828125 C-5.09001907 5.23775442 -9.66040648 2.38724807 -15 0 C-15.86625 -0.391875 -16.7325 -0.78375 -17.625 -1.1875 C-28.2034972 -4.80645957 -41.14821116 -4.21462403 -51.23046875 0.515625 C-64.26310874 7.28965257 -72.61683318 15.20421249 -77.2890625 29.48046875 C-81.00198427 42.6389003 -79.48315729 56.86027854 -73.125 68.9375 C-66.5615327 79.97242921 -57.11621995 86.74789262 -45 91 C-33.03605141 94.01646404 -20.94224541 92.4776282 -10 87 C-6.14490625 84.54345616 -2.52953396 81.9028616 1 79 C2.65 80.65 4.3 82.3 6 84 C-8.54345933 96.71369655 -22.51993089 99.97465125 -41.43359375 99.19091797 C-53.6773229 98.28009261 -64.90140569 91.01489558 -73.15625 82.21875 C-84.23770486 68.88343991 -87.98696187 54.10733912 -87 37 C-84.69829667 21.23918398 -76.55474806 8.67421878 -64.30078125 -1.16796875 C-44.49156013 -14.73077854 -19.38347213 -13.25305042 0 0 Z " fill="#F8F6F9" transform="translate(116,113)"/>
<path d="M0 0 C5.86253869 3.56350391 8.65367231 7.60293077 11.1875 13.9375 C11.1875 18.2275 11.1875 22.5175 11.1875 26.9375 C-0.6925 26.9375 -12.5725 26.9375 -24.8125 26.9375 C-21.95447473 38.76677805 -21.95447473 38.76677805 -18.375 43.25 C-12.21637097 46.16724533 -5.51004132 46.15091849 0.9609375 44.02734375 C2.49002169 43.33702904 4.0007653 42.60313932 5.48046875 41.8125 C7.1875 40.9375 7.1875 40.9375 9.1875 40.9375 C9.5625 43.6875 9.5625 43.6875 9.1875 46.9375 C3.64221091 51.49695992 -1.10750575 52.16083341 -8.0625 52.25 C-8.80113281 52.27900391 -9.53976563 52.30800781 -10.30078125 52.33789062 C-15.96892393 52.40286933 -19.16339999 51.20738617 -23.8125 47.9375 C-25.73828125 46.0078125 -25.73828125 46.0078125 -27.125 44.0625 C-27.83076172 43.10730469 -27.83076172 43.10730469 -28.55078125 42.1328125 C-32.78071425 34.772991 -32.81887329 26.1838782 -31.8125 17.9375 C-29.53102214 9.73479124 -24.05361449 4.13564945 -16.8984375 -0.23046875 C-11.56960323 -2.356015 -5.38321432 -1.50024006 0 0 Z " fill="#F9F6F9" transform="translate(183.8125,133.0625)"/>
<path d="M0 0 C4.46279226 2.15170341 7.2358803 4.90500786 10 9 C12.08554473 15.3956705 12.16120935 23.34952956 9.375 29.5 C6.92061597 33.68637844 3.61323052 35.95470779 -0.875 37.75 C-8.15902495 38.60694411 -12.01194576 38.2607309 -18 34 C-22.36943784 29.51246925 -23.81324056 25.31581707 -24.3125 19.125 C-24.1304972 13.82669623 -23.00482307 9.13940611 -19.3125 5.19921875 C-13.07741124 -0.24349414 -8.26950606 -0.77932518 0 0 Z " fill="#FCFBFC" transform="translate(89,139)"/>
<path d="M0 0 C11.22 0 22.44 0 34 0 C34 1.98 34 3.96 34 6 C25.09 6 16.18 6 7 6 C7 14.25 7 22.5 7 31 C15.18252797 30.9604086 15.18252797 30.9604086 23.36499023 30.90991211 C24.88394897 30.90616577 24.88394897 30.90616577 26.43359375 30.90234375 C27.47572021 30.89710693 28.51784668 30.89187012 29.59155273 30.88647461 C32 31 32 31 33 32 C33 33.65 33 35.3 33 37 C24.42 37 15.84 37 7 37 C7 45.91 7 54.82 7 64 C16.57 64 26.14 64 36 64 C36 65.98 36 67.96 36 70 C24.12 70 12.24 70 0 70 C0 46.9 0 23.8 0 0 Z " fill="#F9F7FA" transform="translate(76,13)"/>
<path d="M0 0 C11.55 0 23.1 0 35 0 C35 1.98 35 3.96 35 6 C25.76 6 16.52 6 7 6 C7 14.91 7 23.82 7 33 C15.25 33 23.5 33 32 33 C32 34.65 32 36.3 32 38 C23.75 38 15.5 38 7 38 C7 48.56 7 59.12 7 70 C4.69 70 2.38 70 0 70 C0 46.9 0 23.8 0 0 Z " fill="#FCFCFD" transform="translate(125,13)"/>
<path d="M0 0 C0 2.31 0 4.62 0 7 C-0.66386719 6.94199219 -1.32773438 6.88398438 -2.01171875 6.82421875 C-7.80128868 6.5146052 -7.80128868 6.5146052 -12.9375 8.9375 C-18.64356318 17.41013927 -18.52503839 26.67104228 -18.6875 36.5625 C-18.72073948 37.9668274 -18.75523505 39.37112567 -18.79101562 40.77539062 C-18.87299795 44.18351308 -18.94231345 47.59139425 -19 51 C-20.98 51 -22.96 51 -25 51 C-25 34.17 -25 17.34 -25 0 C-23.02 0 -21.04 0 -19 0 C-18.67 2.31 -18.34 4.62 -18 7 C-17.2575 6.05125 -16.515 5.1025 -15.75 4.125 C-11.63876446 -0.74417282 -6.2676886 -3.1338443 0 0 Z " fill="#FCFBFC" transform="translate(147,133)"/>
<path d="M0 0 C3.36637548 2.29525601 4.92706799 4.22913599 6.75 7.875 C6.75 10.185 6.75 12.495 6.75 14.875 C-2.49 14.875 -11.73 14.875 -21.25 14.875 C-20.25157054 7.88599379 -19.36690947 4.47242456 -14 0 C-9.03820261 -2.02982621 -4.92701381 -1.70550478 0 0 Z " fill="#671E79" transform="translate(181.25,139.125)"/>
</svg>
