<?xml version="1.0" encoding="UTF-8"?>
<svg version="1.1" xmlns="http://www.w3.org/2000/svg" width="204" height="247">
<path d="M0 0 C67.32 0 134.64 0 204 0 C204 81.51 204 163.02 204 247 C136.68 247 69.36 247 0 247 C0 165.49 0 83.98 0 0 Z " fill="#E34B4D" transform="translate(0,0)"/>
<path d="M0 0 C0.83864782 0.32481165 1.67729565 0.6496233 2.54135704 0.98427773 C6.31919306 2.09373951 9.40471066 2.25052525 13.33828735 2.2515564 C14.41367628 2.2560116 14.41367628 2.2560116 15.51079023 2.26055682 C17.90131893 2.26816565 20.29159967 2.2617158 22.68212891 2.25537109 C24.40064154 2.25812236 26.1191529 2.26180308 27.83766174 2.26634216 C31.53226058 2.27444209 35.22679894 2.27662571 38.92140579 2.27439499 C44.7618936 2.2715598 50.60226067 2.28592029 56.44271851 2.30337524 C73.04838259 2.35038656 89.65403793 2.3743531 106.25976562 2.38085938 C115.43554267 2.38460626 124.61118261 2.40260224 133.78690088 2.43595374 C139.59476564 2.45619922 145.4022776 2.45852318 151.21016335 2.44767356 C154.81922126 2.44507136 158.4280725 2.45904564 162.03707695 2.47775459 C163.71245382 2.48308848 165.38786848 2.48155942 167.06323051 2.47271919 C169.34787712 2.46163455 171.6311196 2.47498468 173.91567993 2.49447632 C175.19471003 2.49556585 176.47374012 2.49665539 177.7915287 2.49777794 C181.56669656 3.08870502 182.75910986 3.95449648 185 7 C185.5146637 10.06687927 185.5146637 10.06687927 185.53344727 13.70874023 C185.54206284 14.37428925 185.55067841 15.03983826 185.55955505 15.72555542 C185.58221272 17.92029993 185.57547726 20.1137672 185.56640625 22.30859375 C185.57164235 23.83789956 185.57791878 25.36720214 185.58518982 26.89649963 C185.59559383 30.10018113 185.59103354 33.30341847 185.57641602 36.50708008 C185.55923555 40.60762069 185.5827123 44.7067591 185.61790562 48.80714321 C185.63989464 51.96512595 185.63843455 55.122774 185.6301403 58.2808094 C185.62932144 59.7922526 185.63617263 61.30372053 185.65091133 62.81509209 C185.66838561 64.93155241 185.65379672 67.04550462 185.63110352 69.16186523 C185.63014175 70.36447495 185.62917999 71.56708466 185.62818909 72.80613708 C184.79802993 77.02686393 183.33184999 78.32508206 180 81 C176.64727688 81.62641239 176.64727688 81.62641239 172.7440033 81.62818909 C171.66377068 81.63883067 171.66377068 81.63883067 170.56171519 81.64968723 C168.15379687 81.66725942 165.74749452 81.64916838 163.33959961 81.63110352 C161.6113766 81.63624263 159.88315883 81.64352385 158.154953 81.65278625 C153.4648502 81.6713082 148.7753155 81.65835732 144.08523631 81.63869596 C139.17836384 81.6223173 134.27152757 81.63112114 129.36463928 81.63621521 C121.12540606 81.64073662 112.88639983 81.62486235 104.6472168 81.59692383 C95.1182408 81.56486109 85.58967398 81.56489162 76.06066889 81.5821386 C66.89667686 81.59799466 57.73283501 81.59127675 48.56884956 81.57420158 C44.66738455 81.56732461 40.76603969 81.56837013 36.86457634 81.57574654 C32.27207482 81.58340005 27.6800398 81.57131397 23.08761787 81.54389763 C21.40096039 81.53700328 19.71425942 81.53692706 18.02760315 81.54411316 C15.72755022 81.55278449 13.42894476 81.53689352 11.12901306 81.5146637 C9.8413098 81.51185678 8.55360655 81.50904985 7.22688198 81.50615788 C4 81 4 81 1.58450031 79.18059826 C-0.67884442 76.06577048 -0.52956941 73.18045768 -0.45410156 69.47753906 C-0.45468567 68.72593002 -0.45526978 67.97432098 -0.45587158 67.19993591 C-0.45308998 64.72135865 -0.42199617 62.24399155 -0.390625 59.765625 C-0.38316284 58.04498959 -0.37746979 56.32434568 -0.37347412 54.60369873 C-0.35821575 50.07924861 -0.31893242 45.55531372 -0.2746582 41.03106689 C-0.23370975 36.41270924 -0.21546403 31.79426819 -0.1953125 27.17578125 C-0.15243818 18.11696137 -0.08418454 9.05852356 0 0 Z " fill="#FDFDFD" transform="translate(6,134)"/>
<path d="M0 0 C20.13 0 40.26 0 61 0 C61 21.78 61 43.56 61 66 C55.43125 66.061875 49.8625 66.12375 44.125 66.1875 C41.52069092 66.22846802 41.52069092 66.22846802 38.86376953 66.27026367 C27.0175259 66.38003943 16.97598281 65.57148573 8 57 C1.25703997 49.49283783 -0.30833709 42.92460814 -0.1953125 33.0078125 C-0.19329834 32.16855225 -0.19128418 31.32929199 -0.18920898 30.46459961 C-0.1788024 27.35134356 -0.15088007 24.23816587 -0.125 21.125 C-0.063125 10.668125 -0.063125 10.668125 0 0 Z " fill="#FEFEFE" transform="translate(143,0)"/>
<path d="M0 0 C0 7.92 0 15.84 0 24 C3.17800484 23.99000725 3.17800484 23.99000725 6.42021179 23.97981262 C26.35901499 23.91854874 46.29780579 23.8738813 66.23668194 23.84456348 C76.488148 23.82908949 86.73954504 23.80798977 96.9909668 23.77368164 C105.92529671 23.74379561 114.85957664 23.72442887 123.79395515 23.71773452 C128.52538065 23.71382091 133.25666313 23.7046123 137.98804283 23.68280983 C142.4408206 23.66245729 146.89339634 23.65616371 151.3462162 23.66067696 C152.98087283 23.6598512 154.61553617 23.65387818 156.25015259 23.64238358 C158.48197347 23.62745843 160.71303148 23.63104603 162.94487 23.63923645 C164.81841424 23.63508838 164.81841424 23.63508838 166.72980785 23.63085651 C170.31310117 24.03534326 172.16429688 24.80439366 175 27 C177.60220807 31.73464025 178.37728849 35.5809161 178.38818359 40.94165039 C178.39606903 41.92359123 178.39606903 41.92359123 178.40411377 42.92536926 C178.41720356 45.06638198 178.40861687 47.20663739 178.3984375 49.34765625 C178.40046118 50.84785605 178.40337507 52.34805489 178.40713501 53.84825134 C178.4115432 56.98267033 178.40517532 60.11683179 178.39111328 63.2512207 C178.37400719 67.25822181 178.38388072 71.26462063 178.40183067 75.27159977 C178.41269682 78.36608885 178.40920951 81.46043627 178.4014473 84.55492973 C178.39945387 86.03203847 178.4018743 87.5091603 178.40888596 88.98625374 C178.41654925 91.05376151 178.40483062 93.12030757 178.38818359 95.18774414 C178.38579681 96.36131973 178.38341003 97.53489532 178.38095093 98.74403381 C177.84869113 103.29322842 176.41509786 106.71756756 173 109.8125 C168.96404998 112.20884532 165.53385584 112.13630374 160.92877197 112.16062927 C159.84202702 112.168261 159.84202702 112.168261 158.73332763 112.17604691 C156.29910835 112.1917767 153.86491876 112.20029781 151.43066406 112.20874023 C149.68790498 112.21827821 147.9451478 112.22816934 146.20239258 112.23838806 C140.47349293 112.26977739 134.74457872 112.29003919 129.015625 112.30859375 C127.55377289 112.31353973 127.55377289 112.31353973 126.06238842 112.31858563 C116.87205119 112.34936459 107.6817107 112.37607298 98.49133682 112.39300442 C86.73475534 112.41491743 74.97863018 112.4569039 63.22223115 112.52644199 C54.95631478 112.57367495 46.69052157 112.59793697 38.42447448 112.6052013 C33.48719223 112.61015828 28.5504243 112.62524374 23.61328888 112.6649456 C18.9674064 112.70181331 14.32233197 112.71022132 9.67633057 112.69693947 C7.97314979 112.69699341 6.2699332 112.70728862 4.5668869 112.7286911 C-9.9017879 112.90077142 -9.9017879 112.90077142 -14.50543213 109.14393616 C-18.57212093 104.8093507 -18.158956 99.95249146 -18.17700195 94.32519531 C-18.18357315 93.43867279 -18.19014435 92.55215027 -18.19691467 91.63876343 C-18.21664167 88.70188309 -18.22830921 85.76505389 -18.23828125 82.828125 C-18.24235678 81.82461754 -18.2464323 80.82111008 -18.25063133 79.7871933 C-18.27148993 74.47531846 -18.28579234 69.16346943 -18.29516602 63.8515625 C-18.3062275 58.36932994 -18.34062517 52.8875036 -18.38033772 47.40541458 C-18.40650275 43.18629205 -18.41485779 38.9672663 -18.41844749 34.74806976 C-18.42331404 32.72749845 -18.43492996 30.70693148 -18.45348549 28.68643951 C-18.47787335 25.85476135 -18.47691244 23.02413419 -18.4699707 20.19238281 C-18.48278076 19.36199493 -18.49559082 18.53160706 -18.50878906 17.67605591 C-18.45802638 11.97833999 -17.26743952 8.69385369 -14 4 C-8.89207724 -0.52747699 -7.47780262 0 0 0 Z M-12 26 C-12.09265889 35.97039028 -12.16374407 45.94067822 -12.20724869 55.91141129 C-12.22812826 60.54119316 -12.25645249 65.17068057 -12.30175781 69.80029297 C-12.34520263 74.26771694 -12.36913432 78.73485759 -12.37950897 83.2024765 C-12.38690283 84.90736095 -12.40134132 86.6122298 -12.42292023 88.31699371 C-12.45193694 90.70418364 -12.45595686 93.0902013 -12.45410156 95.47753906 C-12.47567322 96.53597771 -12.47567322 96.53597771 -12.49768066 97.61579895 C-12.47145358 100.73228266 -12.26798796 102.63119346 -10.41549969 105.18059826 C-7.12363474 107.6600955 -4.9724639 107.50572334 -0.87098694 107.5146637 C-0.15239185 107.52160922 0.56620323 107.52855475 1.30657393 107.53571075 C3.71503341 107.55401063 6.12251117 107.5437088 8.53100586 107.53344727 C10.25745889 107.54050429 11.98390572 107.54924839 13.71034241 107.55955505 C18.40047545 107.58208372 23.09027159 107.57910117 27.78043818 107.57023358 C31.69458297 107.56512838 35.60866418 107.57241248 39.52280241 107.57970566 C48.75606201 107.59671584 57.98915639 107.5931277 67.22241211 107.57641602 C76.75082198 107.55949321 86.27877378 107.57532886 95.80713362 107.6076389 C103.98560318 107.63432184 112.16393003 107.64161431 120.34243876 107.63312382 C125.22810534 107.62819084 130.11349627 107.63043019 134.99912834 107.65091133 C139.59331099 107.66924812 144.18683401 107.66333448 148.78098106 107.63871193 C150.46722839 107.63369763 152.1535258 107.63720987 153.83973312 107.64986038 C156.14191717 107.66576597 158.44192244 107.65086733 160.7440033 107.62818909 C162.67612372 107.62730962 162.67612372 107.62730962 164.64727688 107.62641239 C168.88756582 106.83416995 170.37009648 105.354398 173 102 C173.74497253 98.75268535 173.74497253 98.75268535 173.63110352 95.16186523 C173.63825882 94.4945639 173.64541412 93.82726257 173.65278625 93.13973999 C173.66962483 90.94531719 173.65030534 88.75295143 173.62890625 86.55859375 C173.62973532 85.02832368 173.63219613 83.49805371 173.63621521 81.9677887 C173.63906972 78.76576835 173.62440552 75.56444886 173.59692383 72.36254883 C173.56281164 68.26094021 173.56887149 64.16058204 173.5875864 60.05891323 C173.59816011 56.90096128 173.58921593 53.74329978 173.57420158 50.58537483 C173.5690239 49.07312953 173.56949659 47.56085385 173.57574654 46.04861259 C173.58120485 43.93465918 173.56080988 41.82249018 173.53344727 39.70874023 C173.52724869 38.50692612 173.52105011 37.305112 173.5146637 36.06687927 C172.87709088 32.26758497 172.03893747 31.31949693 169 29 C165.69458133 28.39834095 165.69458133 28.39834095 161.91567993 28.49447632 C160.84497098 28.48534114 160.84497098 28.48534114 159.75263155 28.47602141 C157.36030999 28.46040283 154.96898697 28.47321648 152.57666016 28.48583984 C150.86168284 28.48037988 149.1467104 28.47313896 147.43174744 28.46424866 C143.73814226 28.44889989 140.0448149 28.44611436 136.35118484 28.45301437 C130.5102475 28.46378967 124.66960103 28.44643165 118.82870483 28.42520142 C109.58886335 28.39492437 100.34910783 28.38324523 91.10922086 28.37962496 C74.56697515 28.37298172 58.02478924 28.34396699 41.48261678 28.2945286 C35.67705794 28.27803213 29.87162411 28.27261371 24.06604409 28.27611899 C20.4525841 28.2765563 16.83917122 28.26898744 13.22572517 28.25944328 C11.55118437 28.25676241 9.876634 28.25750896 8.20209694 28.26195335 C5.91404024 28.26760563 3.62632419 28.26103546 1.33828735 28.2515564 C0.05850321 28.25122091 -1.22128094 28.25088543 -2.53984642 28.25053978 C-6.01322926 27.99904211 -8.76447321 27.25313244 -12 26 Z " fill="#CE4748" transform="translate(18,108)"/>
<path d="M0 0 C13.86 0 27.72 0 42 0 C42 0.33 42 0.66 42 1 C41.443125 1.13535156 40.88625 1.27070313 40.3125 1.41015625 C32.35003288 3.65632519 26.55810898 7.79602895 22.30981445 14.99560547 C18.43082559 23.11116349 19.27185829 32.21519237 19.29296875 41.0078125 C19.27983725 42.94409734 19.2645286 44.88036852 19.24714661 46.81661987 C19.20745363 51.88333427 19.1971163 56.94968902 19.19311523 62.01654053 C19.18375411 67.19863689 19.14632199 72.38052455 19.11132812 77.5625 C19.04691227 87.70832372 19.01354103 97.85398965 19 108 C18.08420166 108.07891479 18.08420166 108.07891479 17.14990234 108.15942383 C16.34504395 108.23700928 15.54018555 108.31459473 14.7109375 108.39453125 C13.91478027 108.46776611 13.11862305 108.54100098 12.29833984 108.61645508 C8.75518916 109.20773293 6.66894747 110.64878437 4 113 C2.11431306 116.10014929 2.11431306 116.10014929 1 119 C0.67 119 0.34 119 0 119 C0 79.73 0 40.46 0 0 Z " fill="#FEFCFC" transform="translate(0,0)"/>
<path d="M0 0 C7.38322123 6.21922404 7.38322123 6.21922404 10.54296875 9.62890625 C11.13537354 10.26449463 11.72777832 10.90008301 12.33813477 11.55493164 C12.94842529 12.2174292 13.55871582 12.87992676 14.1875 13.5625 C15.16577759 14.61522095 15.16577759 14.61522095 16.16381836 15.68920898 C18.11329746 17.78906899 20.05741942 19.89375878 22 22 C23.04942634 23.13546549 24.09890149 24.27088587 25.1484375 25.40625 C26.6028315 26.98075814 28.05646485 28.55594511 29.50830078 30.1328125 C33.34040342 34.29418641 37.1987868 38.43048066 41.0625 42.5625 C45.46987757 47.28100088 49.87317867 52.0031203 54.25 56.75 C55.12140625 57.69359375 55.9928125 58.6371875 56.890625 59.609375 C59 62 59 62 61 65 C56.19860134 65.07484195 51.39755138 65.12892454 46.59570312 65.16479492 C44.96641109 65.17976766 43.33715855 65.20015321 41.70800781 65.22631836 C28.96086047 65.42573692 17.75838251 65.31862707 8 56 C1.32506692 48.56857451 -0.30953696 42.04975432 -0.1953125 32.2265625 C-0.1924826 31.3028183 -0.18965271 30.3790741 -0.18673706 29.42733765 C-0.17559179 26.49309024 -0.15049765 23.5591543 -0.125 20.625 C-0.11496289 18.62891068 -0.10583832 16.63281654 -0.09765625 14.63671875 C-0.07567097 9.75769351 -0.04118017 4.87889946 0 0 Z " fill="#FACECF" transform="translate(143,1)"/>
<path d="M0 0 C0.73798828 -0.01998047 1.47597656 -0.03996094 2.23632812 -0.06054688 C7.45759525 -0.05590575 10.4197294 1.01657579 14.5625 4.4375 C19.42940745 11.1504758 19.08870867 18.41281782 18.5625 26.4375 C17.53313917 31.69026777 16.06231982 36.22334299 11.5625 39.4375 C5.15253078 42.64248461 -3.16548002 42.5083429 -9.875 40.3125 C-14.16128367 37.17619488 -17.43841655 33.8163909 -18.4375 28.4375 C-19.66683884 11.2267562 -19.66683884 11.2267562 -15.01953125 4.8828125 C-10.20737905 0.48652531 -6.27198304 -0.05994076 0 0 Z " fill="#181818" transform="translate(109.4375,153.5625)"/>
<path d="M0 0 C4.29 0 8.58 0 13 0 C13 13.2 13 26.4 13 40 C1 40 1 40 -2.10546875 37.4453125 C-2.79253906 36.34960938 -3.47960937 35.25390625 -4.1875 34.125 C-4.90292969 33.03445312 -5.61835938 31.94390625 -6.35546875 30.8203125 C-7.27863826 29.23710968 -8.18039362 27.63921277 -9 26 C-9.33 30.62 -9.66 35.24 -10 40 C-13.96 40 -17.92 40 -22 40 C-22 27.13 -22 14.26 -22 1 C-10 1 -10 1 -7.11328125 3.3359375 C-6.51902344 4.33882812 -5.92476562 5.34171875 -5.3125 6.375 C-4.68988281 7.37273437 -4.06726563 8.37046875 -3.42578125 9.3984375 C-2.59244487 10.918991 -1.77543955 12.44912091 -1 14 C-0.67 9.38 -0.34 4.76 0 0 Z " fill="#181818" transform="translate(156,154)"/>
<path d="M0 0 C1.31871094 0.00290039 1.31871094 0.00290039 2.6640625 0.00585938 C4.03691406 0.02422852 4.03691406 0.02422852 5.4375 0.04296875 C6.81035156 0.04393555 6.81035156 0.04393555 8.2109375 0.04492188 C15.01555488 0.08982038 15.01555488 0.08982038 18.4375 1.23046875 C18.4375 4.53046875 18.4375 7.83046875 18.4375 11.23046875 C13.1575 10.90046875 7.8775 10.57046875 2.4375 10.23046875 C2.4375 11.55046875 2.4375 12.87046875 2.4375 14.23046875 C3.4275 14.16859375 4.4175 14.10671875 5.4375 14.04296875 C11.06996009 14.06581849 15.65008558 15.7111665 19.9375 19.35546875 C22.04747872 23.39959462 22.08411391 26.75937013 21.4375 31.23046875 C20.12907484 34.94915078 19.15962345 36.69350516 16 39.04296875 C11.29799922 41.22194472 7.25200746 41.392073 2.0625 41.41796875 C0.77601562 41.43214844 -0.51046875 41.44632813 -1.8359375 41.4609375 C-5.44702711 41.23761016 -8.21011667 40.54339907 -11.5625 39.23046875 C-11.2325 35.93046875 -10.9025 32.63046875 -10.5625 29.23046875 C-4.6225 29.56046875 1.3175 29.89046875 7.4375 30.23046875 C7.4375 28.91046875 7.4375 27.59046875 7.4375 26.23046875 C6.45910156 26.28267578 6.45910156 26.28267578 5.4609375 26.3359375 C0.03011899 26.50414869 -3.96358913 26.48335692 -8.5625 23.23046875 C-11.99079591 19.45934325 -12.06766394 15.56309392 -11.921875 10.671875 C-11.39448846 7.08908602 -9.9194924 4.92417434 -7.5625 2.23046875 C-4.39361737 0.11788033 -3.62220739 -0.01853256 0 0 Z " fill="#1B1B1B" transform="translate(65.5625,153.76953125)"/>
<path d="M0 0 C0.79225983 0.00247742 1.58451965 0.00495483 2.40078735 0.00750732 C3.2350676 0.00239639 4.06934784 -0.00271454 4.9289093 -0.00798035 C7.69573068 -0.02191763 10.46230412 -0.02091647 13.22915649 -0.01861572 C15.14725335 -0.02250044 17.06534935 -0.02683464 18.98344421 -0.03160095 C23.00767808 -0.03907211 27.03182423 -0.03876546 31.05606079 -0.0335083 C36.21918655 -0.02771309 41.38195366 -0.04464158 46.5450201 -0.06785297 C50.50750334 -0.08256803 54.46989976 -0.08346505 58.43240547 -0.08034325 C60.33624545 -0.0808576 62.24009015 -0.08611666 64.14390373 -0.09615517 C66.80398899 -0.10845895 69.46337006 -0.10176455 72.1234436 -0.09014893 C73.308797 -0.10161453 73.308797 -0.10161453 74.51809692 -0.11331177 C79.82481937 -0.06195912 79.82481937 -0.06195912 82.35514832 1.67262268 C83.32681274 3.28216553 83.32681274 3.28216553 83.07681274 5.40716553 C82.32681274 7.28216553 82.32681274 7.28216553 81.32681274 8.28216553 C78.59330526 8.38265076 75.88503382 8.41832814 73.15103149 8.41156006 C72.29417755 8.41331238 71.43732361 8.4150647 70.55450439 8.41687012 C67.70775355 8.4212897 64.86106428 8.41835027 62.01431274 8.41497803 C60.04515572 8.41565104 58.07599878 8.41662104 56.10684204 8.4178772 C51.9741029 8.41935431 47.84138532 8.41719917 43.70864868 8.41253662 C38.39856754 8.40683933 33.08853693 8.41011826 27.77845764 8.41610909 C23.71055721 8.41971433 19.64266885 8.41857628 15.57476807 8.41598129 C13.61625157 8.41531192 11.65773399 8.4161408 9.69921875 8.41846085 C6.96698075 8.42098677 4.23482578 8.41714764 1.50259399 8.41156006 C0.27604599 8.41459641 0.27604599 8.41459641 -0.97528076 8.41769409 C-6.5589248 8.39642799 -6.5589248 8.39642799 -7.67318726 7.28216553 C-7.86068726 4.84466553 -7.86068726 4.84466553 -7.67318726 2.28216553 C-5.12507172 -0.26595001 -3.4753966 0.03410174 0 0 Z " fill="#973232" transform="translate(73.67318725585938,78.71783447265625)"/>
<path d="M0 0 C1.32 1.65 2.64 3.3 4 5 C7.14794447 7.94631993 9.48209581 8.43345808 13.75 8.6875 C15.22726562 8.78611328 15.22726562 8.78611328 16.734375 8.88671875 C17.48203125 8.92410156 18.2296875 8.96148437 19 9 C19.08636719 9.556875 19.17273438 10.11375 19.26171875 10.6875 C20.81956151 19.14844415 24.36700471 25.31470976 31.0859375 30.74609375 C34.22055908 32.79959074 37.43465923 33.87410291 41 35 C41 35.33 41 35.66 41 36 C27.47 36 13.94 36 0 36 C0 24.12 0 12.24 0 0 Z " fill="#FEFDFD" transform="translate(0,211)"/>
<path d="M0 0 C1.17044357 0.00303635 1.17044357 0.00303635 2.36453247 0.00613403 C3.59129196 0.00350555 3.59129196 0.00350555 4.84283447 0.00082397 C7.55972383 -0.00359528 10.27654865 -0.0006563 12.99343872 0.00271606 C14.87291476 0.00204305 16.75239071 0.00107304 18.63186646 -0.00018311 C22.57629218 -0.00166018 26.5206953 0.00049478 30.46511841 0.00515747 C35.53306375 0.01085476 40.60095614 0.00757581 45.66889954 0.00158501 C49.55150759 -0.00202035 53.434103 -0.00088214 57.31671143 0.0017128 C59.18591315 0.00238214 61.055116 0.00155341 62.92431641 -0.00076675 C65.53202376 -0.00329287 68.13964413 0.00054672 70.74734497 0.00613403 C71.52764069 0.0041098 72.3079364 0.00208557 73.11187744 0 C78.44167619 0.02126603 78.44167619 0.02126603 79.55593872 1.13552856 C79.59674655 3.1351122 79.59848228 5.1359811 79.55593872 7.13552856 C76.46928272 8.67885656 73.22013896 8.27398646 69.83328247 8.2649231 C68.63797409 8.26755157 68.63797409 8.26755157 67.41851807 8.27023315 C64.77680299 8.27464485 62.13515452 8.27171607 59.49343872 8.26834106 C57.66262804 8.2690143 55.83181745 8.26998449 54.00100708 8.27124023 C50.16091055 8.27271628 46.32083725 8.27056563 42.48074341 8.26589966 C37.55080821 8.26020243 32.62092746 8.26348193 27.69099426 8.26947212 C23.90957222 8.27308024 20.12816315 8.27193799 16.34674072 8.26934433 C14.52860508 8.26867576 12.71046827 8.26950107 10.89233398 8.27182388 C8.3543891 8.27435449 5.8165332 8.27050401 3.27859497 8.2649231 C2.14395309 8.26795944 2.14395309 8.26795944 0.98638916 8.27105713 C-4.21553267 8.24979287 -4.21553267 8.24979287 -6.44406128 7.13552856 C-6.48660484 5.1359811 -6.48486911 3.1351122 -6.44406128 1.13552856 C-4.68077656 -0.62775615 -2.34888984 0.00937213 0 0 Z " fill="#953131" transform="translate(72.44406127929688,107.86447143554688)"/>
<path d="M0 0 C5.94 0 11.88 0 18 0 C18.06910041 4.44801928 18.12876017 8.89415558 18.16479492 13.34228516 C18.17982543 14.85341727 18.20025564 16.36450618 18.22631836 17.87548828 C18.26295689 20.05512187 18.27978338 22.23417575 18.29296875 24.4140625 C18.3086792 25.7232666 18.32438965 27.0324707 18.34057617 28.38134766 C17.97091495 32.30903131 17.09301761 34.67602966 15 38 C11.2632157 40.49118953 9.25548181 40.2065226 4.8125 40.125 C3.54019531 40.10695312 2.26789062 40.08890625 0.95703125 40.0703125 C-0.01878906 40.04710937 -0.99460937 40.02390625 -2 40 C-2.33 36.7 -2.66 33.4 -3 30 C0.465 29.505 0.465 29.505 4 29 C4.495 20.09 4.495 20.09 5 11 C3.35 11 1.7 11 0 11 C0 7.37 0 3.74 0 0 Z " fill="#1D1D1D" transform="translate(31,154)"/>
<path d="M0 0 C11.55 0 23.1 0 35 0 C35 7.92 35 15.84 35 24 C29.37915002 20.87730557 24.28235805 17.96004573 19.1875 14.1875 C13.60470254 10.1174457 7.92989692 6.25738742 2.1328125 2.49609375 C1.42898437 2.00238281 0.72515625 1.50867188 0 1 C0 0.67 0 0.34 0 0 Z " fill="#CC4344" transform="translate(168,66)"/>
<path d="M0 0 C1.21816406 0.03480469 1.21816406 0.03480469 2.4609375 0.0703125 C3.68683594 0.09738281 3.68683594 0.09738281 4.9375 0.125 C5.87722656 0.15980469 5.87722656 0.15980469 6.8359375 0.1953125 C6.88972976 3.15388659 6.92950843 6.11148971 6.9609375 9.0703125 C6.97769531 9.91207031 6.99445313 10.75382813 7.01171875 11.62109375 C7.01816406 12.42675781 7.02460937 13.23242188 7.03125 14.0625 C7.04172363 14.80612793 7.05219727 15.54975586 7.06298828 16.31591797 C6.8359375 18.1953125 6.8359375 18.1953125 4.8359375 20.1953125 C2.671875 20.390625 2.671875 20.390625 0.2109375 20.3203125 C-0.60632813 20.30226562 -1.42359375 20.28421875 -2.265625 20.265625 C-2.89210938 20.24242187 -3.51859375 20.21921875 -4.1640625 20.1953125 C-4.21785476 17.23673841 -4.25763343 14.27913529 -4.2890625 11.3203125 C-4.30582031 10.47855469 -4.32257813 9.63679687 -4.33984375 8.76953125 C-4.34628906 7.96386719 -4.35273437 7.15820312 -4.359375 6.328125 C-4.37508545 5.21268311 -4.37508545 5.21268311 -4.39111328 4.07470703 C-4.03626024 1.1374396 -2.88459816 0.26034279 0 0 Z " fill="#F1F1F1" transform="translate(108.1640625,163.8046875)"/>
<path d="M0 0 C0.33 0 0.66 0 1 0 C1 8.25 1 16.5 1 25 C-6.59 25 -14.18 25 -22 25 C-19.3892041 23.2594694 -17.03891262 22.12769433 -14.1875 20.875 C-7.91196072 17.73723036 -4.43836256 13.83381046 -1.97265625 7.26171875 C-1.23331895 4.85291014 -0.57305946 2.45309663 0 0 Z " fill="#FEFAFA" transform="translate(203,222)"/>
<path d="M0 0 C4.29 0 8.58 0 13 0 C13 13.2 13 26.4 13 40 C9.04 40 5.08 40 1 40 C0.67 39.34 0.34 38.68 0 38 C3.63 38 7.26 38 11 38 C11 26.12 11 14.24 11 2 C7.37 2 3.74 2 0 2 C0 1.34 0 0.68 0 0 Z " fill="#3A3A3A" transform="translate(156,154)"/>
<path d="M0 0 C5.94 0 11.88 0 18 0 C18.04591902 4.50261508 18.08574101 9.00441739 18.10986328 13.50708008 C18.11991935 15.03868361 18.133566 16.57026795 18.15087891 18.10180664 C18.17514498 20.30359636 18.18648688 22.50513219 18.1953125 24.70703125 C18.20563507 25.39150833 18.21595764 26.07598541 18.22659302 26.78120422 C18.22745382 30.43061661 18.08567666 31.87148502 16 35 C16 24.11 16 13.22 16 2 C11.05 2 6.1 2 1 2 C1 4.31 1 6.62 1 9 C2.98 9.495 2.98 9.495 5 10 C3.35 10 1.7 10 0 10 C0 6.7 0 3.4 0 0 Z " fill="#2D2D2D" transform="translate(31,154)"/>
</svg>
