<?xml version="1.0" encoding="UTF-8"?>
<svg version="1.1" xmlns="http://www.w3.org/2000/svg" width="320" height="320">
<path d="M0 0 C95.04 0 190.08 0 288 0 C288 95.04 288 190.08 288 288 C192.96 288 97.92 288 0 288 C0 192.96 0 97.92 0 0 Z " fill="#4E5B52" transform="translate(16,16)"/>
<path d="M0 0 C29.77514928 -0.82860926 55.58639207 7.13568872 77.91992188 27.06201172 C78.41959473 27.50657715 78.91926758 27.95114258 79.43408203 28.40917969 C98.63691538 45.81830684 111.42036417 71.19913783 113.12402344 97.17382812 C113.24117023 100.45147715 113.29002462 103.7198224 113.29492188 106.99951172 C113.29733887 108.52535889 113.29733887 108.52535889 113.29980469 110.08203125 C113.14758603 120.49886117 111.71165484 130.28186198 107.73242188 139.93701172 C107.43070068 140.69224121 107.12897949 141.4474707 106.81811523 142.22558594 C103.90852355 149.3706592 100.52595516 156.24452629 96.91992188 163.06201172 C93.91992188 163.06201172 93.91992188 163.06201172 92.31445312 161.74951172 C91.79238281 161.19263672 91.2703125 160.63576172 90.73242188 160.06201172 C90.20261719 159.50513672 89.6728125 158.94826172 89.12695312 158.37451172 C88.72863281 157.94138672 88.3303125 157.50826172 87.91992188 157.06201172 C84.10429793 158.36024646 81.84901308 159.8116803 79.10742188 162.74951172 C73.43494916 168.64631951 67.22556657 173.85985485 60.91992188 179.06201172 C62.0931783 181.94182295 63.29930854 183.44139839 65.54492188 185.68701172 C67.91992188 188.06201172 67.91992188 188.06201172 67.91992188 190.06201172 C68.57992187 190.06201172 69.23992187 190.06201172 69.91992188 190.06201172 C68.48947692 194.35334659 65.33704463 195.62921228 61.60742188 197.81201172 C60.85557617 198.25230713 60.10373047 198.69260254 59.32910156 199.14624023 C51.29841845 203.66946734 42.90756368 206.71770802 34.11035156 209.39404297 C32.28942764 209.9493314 30.48156655 210.54724002 28.67773438 211.15576172 C4.17459167 218.32741324 -23.66562382 212.03151913 -45.59521484 200.19482422 C-62.08705078 190.94756821 -75.03356382 177.95447462 -85.08007812 162.06201172 C-85.71816406 161.09650391 -86.35625 160.13099609 -87.01367188 159.13623047 C-91.34015575 152.2603776 -93.83772728 145.38153076 -96.03710938 137.62841797 C-96.95943013 134.19876493 -96.95943013 134.19876493 -98.15429688 131.58935547 C-105.33141163 111.99613503 -100.91956449 83.41502077 -92.73632812 64.58154297 C-78.79452247 34.95520596 -57.00378217 15.59870591 -26.64648438 3.71826172 C-17.82057877 0.69347155 -9.25870637 0.27602247 0 0 Z " fill="#FDFDFD" transform="translate(154.080078125,53.93798828125)"/>
<path d="M0 0 C95.04 0 190.08 0 288 0 C288 45.21 288 90.42 288 137 C287.67 137 287.34 137 287 137 C286.87044922 135.03933594 286.87044922 135.03933594 286.73828125 133.0390625 C285.55802477 117.33336883 282.67646899 102.36845267 276 88 C275.44699219 86.80246094 274.89398438 85.60492188 274.32421875 84.37109375 C267.25493094 69.4709299 258.51414866 56.78037175 247 45 C245.81664062 43.72382812 245.81664062 43.72382812 244.609375 42.421875 C234.09513433 31.35058846 221.43209316 23.10366293 208 16 C207.38237793 15.6692749 206.76475586 15.3385498 206.12841797 14.99780273 C201.22522317 12.44443406 196.27566484 10.57252914 191 8.9375 C190.17838379 8.68073486 189.35676758 8.42396973 188.51025391 8.15942383 C180.76697705 5.80987875 173.00716842 4.17157517 165 3 C164.35643555 2.9057373 163.71287109 2.81147461 163.04980469 2.71435547 C123.8026638 -2.37593496 87.64064827 7.72298255 56.11328125 31.14453125 C24.91304562 55.69478965 6.36899256 90.32226439 1.296875 129.5 C1.19890625 130.325 1.1009375 131.15 1 132 C0.67 132 0.34 132 0 132 C0 88.44 0 44.88 0 0 Z " fill="#FDFDFD" transform="translate(16,16)"/>
<path d="M0 0 C0.33 0 0.66 0 1 0 C1.09498779 0.63800537 1.18997559 1.27601074 1.2878418 1.93334961 C4.84548082 26.30788995 4.84548082 26.30788995 14 49 C14.44988281 50.07765625 14.89976563 51.1553125 15.36328125 52.265625 C28.47567001 83.23405002 56.82109828 109.13880132 87.5625 122 C89.37098809 122.67747438 91.18414222 123.34253425 93 124 C93.90153809 124.34828857 93.90153809 124.34828857 94.82128906 124.70361328 C107.65963065 129.64264308 120.34481638 131.6523769 134 133 C134 133.33 134 133.66 134 134 C89.78 134 45.56 134 0 134 C0 89.78 0 45.56 0 0 Z " fill="#FDFDFD" transform="translate(16,170)"/>
<path d="M0 0 C0.33 0 0.66 0 1 0 C1 42.9 1 85.8 1 130 C-42.23 130 -85.46 130 -130 130 C-130 129.67 -130 129.34 -130 129 C-129.29504395 128.86424561 -128.59008789 128.72849121 -127.86376953 128.58862305 C-124.61647039 127.96017359 -121.37075266 127.32388634 -118.125 126.6875 C-117.01640625 126.47416016 -115.9078125 126.26082031 -114.765625 126.04101562 C-105.18631931 124.15332892 -96.1068826 121.7473191 -87.1875 117.75 C-86.5066333 117.44698975 -85.8257666 117.14397949 -85.12426758 116.83178711 C-74.28382459 111.93695977 -64.42997847 106.27563469 -55 99 C-51.75172817 100.39718243 -49.88620545 101.98573105 -47.625 104.6875 C-47.02816406 105.39261719 -46.43132812 106.09773438 -45.81640625 106.82421875 C-45.21699219 107.54222656 -44.61757813 108.26023437 -44 109 C-42.85567521 110.33462826 -41.70996595 111.66807144 -40.5625 113 C-39.716875 113.99 -38.87125 114.98 -38 116 C-34.993182 114.66000502 -33.00237391 113.20154709 -30.75 110.8125 C-27.021113 106.97230294 -23.05574567 103.48840128 -19 100 C-17.49888785 98.68877212 -15.99885314 97.37630954 -14.5 96.0625 C-13.33333333 95.04166667 -12.16666667 94.02083333 -11 93 C-12.49137007 89.48576095 -14.50557913 87.31523631 -17.25 84.6875 C-21.07670282 80.95352827 -24.58705681 77.1130341 -28 73 C-26.53995503 69.88678242 -24.79004361 66.99719158 -22.97924805 64.07714844 C-10.62301356 44.06516792 -3.79672024 23.13001936 0 0 Z " fill="#FCFCFC" transform="translate(303,174)"/>
<path d="M0 0 C5.85995331 5.16767929 9.92003075 10.83907072 10.71875 18.7421875 C10.75854422 20.1011602 10.78004277 21.46076691 10.78515625 22.8203125 C10.79095703 23.88330566 10.79095703 23.88330566 10.796875 24.96777344 C10.6785925 30.35209159 9.56235772 33.93878269 6.44140625 38.2734375 C5.00102495 40.28918154 5.00102495 40.28918154 5.34765625 44.0703125 C7.26788328 45.84441058 7.26788328 45.84441058 9.34765625 47.0703125 C8.80538644 50.86620116 7.14638062 52.54243243 4.34765625 55.0703125 C2.0864692 54.02047566 0.3723996 53.09334941 -1.46484375 51.3828125 C-4.68440542 49.4510755 -6.99464421 50.4856802 -10.65234375 51.0703125 C-20.979413 51.96980365 -29.08094349 51.27399571 -37.65234375 45.0703125 C-44.4002144 38.68393492 -46.7476251 30.70703059 -47.15234375 21.6328125 C-46.94125908 14.09533074 -44.84031573 8.52823373 -39.71484375 2.96875 C-28.97829637 -6.91375384 -11.96369761 -8.70407455 0 0 Z " fill="#4C5B52" transform="translate(244.65234375,136.9296875)"/>
<path d="M0 0 C5.28 0 10.56 0 16 0 C19.14282382 3.32506634 20.2419834 5.01919562 22 9 C23.1236736 10.90878321 24.26779479 12.80564353 25.4296875 14.69140625 C26.58121746 16.64661947 27.72909374 18.60398555 28.875 20.5625 C30.89625 24.006875 32.9175 27.45125 35 31 C35.33 20.77 35.66 10.54 36 0 C40.62 0 45.24 0 50 0 C50 17.82 50 35.64 50 54 C44.72 54 39.44 54 34 54 C32.7934375 51.7415625 32.7934375 51.7415625 31.5625 49.4375 C27.59666333 42.15735697 23.29669452 35.08749992 19 28 C18.01 26.35 17.02 24.7 16 23 C15.67 33.23 15.34 43.46 15 54 C10.05 54 5.1 54 0 54 C0 36.18 0 18.36 0 0 Z " fill="#4D5C53" transform="translate(141,133)"/>
<path d="M0 0 C4.95 0 9.9 0 15 0 C15 13.86 15 27.72 15 42 C23.91 42 32.82 42 42 42 C42 45.96 42 49.92 42 54 C28.14 54 14.28 54 0 54 C0 36.18 0 18.36 0 0 Z " fill="#4B5A51" transform="translate(67,133)"/>
<path d="M0 0 C4.95 0 9.9 0 15 0 C15 17.82 15 35.64 15 54 C10.05 54 5.1 54 0 54 C0 36.18 0 18.36 0 0 Z " fill="#4D5D53" transform="translate(116,133)"/>
<path d="M0 0 C4.15111752 2.43260195 7.25700578 5.47317141 9 10 C9.265625 12.65625 9.265625 12.65625 9.25 15.5 C9.25515625 16.4384375 9.2603125 17.376875 9.265625 18.34375 C8.99595232 21.04047676 8.3732259 22.68949293 7 25 C6.4225 24.67 5.845 24.34 5.25 24 C2.80116138 22.72924102 2.80116138 22.72924102 -1 23 C-2.62514468 24.45833358 -2.62514468 24.45833358 -4 26 C-4.66 26 -5.32 26 -6 26 C-5.34 26.61875 -4.68 27.2375 -4 27.875 C-2 30 -2 30 -2 32 C-6.42023441 32.44202344 -8.47609866 32.34255088 -12.25 29.875 C-16.64893525 25.27611315 -18.17202112 21.82011005 -18.4375 15.5 C-18.24904249 9.18667346 -16.01416292 6.18680546 -11.8125 1.625 C-7.81961959 -0.68199757 -4.49774763 -1.0302533 0 0 Z " fill="#F6F7F7" transform="translate(231,144)"/>
<path d="M0 0 C0.66 0.33 1.32 0.66 2 1 C-2.66666667 5.66666667 -7.33333333 10.33333333 -12 15 C-12 11 -12 11 -10.390625 9.21875 C-9.68421875 8.6515625 -8.9778125 8.084375 -8.25 7.5 C-7.52296875 6.90058594 -6.7959375 6.30117187 -6.046875 5.68359375 C-5.37140625 5.12800781 -4.6959375 4.57242188 -4 4 C-2.64989719 2.68364976 -1.30585054 1.36026098 0 0 Z " fill="#68736C" transform="translate(227,221)"/>
</svg>
