<?xml version="1.0" encoding="UTF-8"?>
<svg version="1.1" xmlns="http://www.w3.org/2000/svg" width="2060" height="2050">
<path d="M0 0 C1.27230469 0.33257812 2.54460937 0.66515625 3.85546875 1.0078125 C17.69923034 4.94373572 30.48027502 11.81752362 43.32182312 18.19056702 C49.06230834 21.03906553 54.83671197 23.81245523 60.625 26.5625 C69.2627993 30.68194712 77.88388326 34.83546415 86.5 39 C95.1580937 43.1847124 103.82162393 47.35745423 112.5 51.5 C121.13621304 55.62269636 129.75847991 59.77383708 138.375 63.9375 C151.57240649 70.31449998 164.78328908 76.66310458 178 83 C191.83836134 89.63495245 205.66913283 96.2852024 219.48718262 102.96234131 C227.48316305 106.82567124 235.48595126 110.67427613 243.5 114.5 C252.13619966 118.62272451 260.75847979 122.77383702 269.375 126.9375 C282.57240649 133.31449998 295.78328908 139.66310458 309 146 C322.79171684 152.61258824 336.5762387 159.23970982 350.34838867 165.89294434 C362.88841946 171.95055746 375.44231367 177.97908107 388 184 C396.33508939 187.99634902 404.66897288 191.9951883 413 196 C413.59524475 196.28613159 414.1904895 196.57226318 414.80377197 196.86706543 C422.82587243 200.72389008 430.84264993 204.59144495 438.8515625 208.47558594 C441.55436338 209.78423115 444.26094787 211.08456676 446.96875 212.3828125 C478.77251292 227.75961464 502.66229546 253.3328692 514.54003906 286.7487793 C514.79495117 287.49168213 515.04986328 288.23458496 515.3125 289 C515.54291992 289.66233643 515.77333984 290.32467285 516.01074219 291.00708008 C521.05209723 306.58827248 521.43132688 321.796486 521.38031673 338.01147842 C521.38375381 340.43725666 521.388503 342.86303333 521.3944377 345.28880674 C521.40432388 350.55945736 521.4049772 355.82998704 521.39736467 361.10063258 C521.38602313 368.99102122 521.39209374 376.88133293 521.40142866 384.77172081 C521.41683342 398.22259961 521.41804517 411.67344602 521.41144943 425.12433052 C521.40481606 438.75019412 521.40470378 452.37603457 521.41249657 466.00189781 C521.41298457 466.86341357 521.41347256 467.72492932 521.41397535 468.61255161 C521.41598359 472.12153948 521.4180367 475.63052731 521.42014709 479.13951512 C521.44153544 514.74004487 521.44360375 550.34055751 521.43809005 585.94109208 C521.43733432 590.85850719 521.4366067 595.77592231 521.43590808 600.69333744 C521.43576899 601.67008248 521.4356299 602.64682752 521.43548659 603.65317089 C521.43253324 625.30745407 521.43554814 646.9617352 521.43980437 668.61601802 C521.44038652 671.58039994 521.44095537 674.54478187 521.44152 677.5091638 C521.44303498 685.4558484 521.44456189 693.40253301 521.44611301 701.34921761 C521.45686854 756.81852205 521.4615728 812.2878246 521.45364285 867.75712967 C521.45349454 868.80254984 521.45334623 869.84797001 521.45319343 870.92506958 C521.45153446 882.58240715 521.44978488 894.2397447 521.44800042 905.89708224 C521.4478394 906.94955242 521.44767837 908.00202261 521.44751247 909.08638583 C521.44620481 917.62723658 521.44620481 917.62723658 521.44555128 921.8551918 C521.43515984 989.17576926 521.44292664 1056.49632057 521.46655273 1123.81689453 C521.47249622 1140.78029501 521.47838781 1157.7436955 521.48396206 1174.7070961 C521.48447771 1176.27388457 521.48447771 1176.27388457 521.48500379 1177.87232534 C521.49553244 1210.06833499 521.5011252 1242.26434247 521.5015192 1274.46035385 C521.50153199 1275.47125536 521.50154477 1276.48215686 521.50155794 1277.52369175 C521.50178624 1299.71592878 521.50078006 1321.90816562 521.49864888 1344.10040255 C521.49789413 1352.04122583 521.49721592 1359.98204911 521.49656873 1367.92287239 C521.49640604 1369.89831462 521.49623838 1371.87375685 521.49606572 1373.84919908 C521.49334544 1405.31527847 521.50189491 1436.78134198 521.51591982 1468.24741796 C521.53033255 1500.8224351 521.52987095 1533.39742207 521.5125451 1565.97243819 C521.51074095 1569.47245808 521.50900076 1572.97247799 521.50731087 1576.47249794 C521.50689037 1577.33144983 521.50646987 1578.19040171 521.50603662 1579.07538245 C521.49974551 1592.66125798 521.50683268 1606.24709196 521.51952007 1619.83296164 C521.5317201 1633.20073594 521.52957357 1646.56844485 521.51229975 1659.93621422 C521.50260398 1667.76694149 521.50371779 1675.59748269 521.52112973 1683.42819766 C521.53284727 1689.25280258 521.52354133 1695.0772271 521.50628388 1700.90181129 C521.50256379 1703.23530462 521.50546315 1705.56882091 521.51599697 1707.90229342 C521.58923405 1725.33422648 520.24027633 1742.43939107 513.75 1758.8125 C513.45335449 1759.584729 513.15670898 1760.35695801 512.85107422 1761.15258789 C497.55173746 1799.86333809 467.26725851 1821.54735757 431 1839 C429.50509033 1839.72171387 429.50509033 1839.72171387 427.97998047 1840.45800781 C422.29434235 1843.19948631 416.59697963 1845.91571142 410.89501953 1848.62304688 C405.8824236 1851.0071792 400.8787532 1853.40987759 395.875 1855.8125 C394.84769775 1856.30556641 393.82039551 1856.79863281 392.76196289 1857.30664062 C384.00589726 1861.51160333 375.25923073 1865.73594564 366.5133667 1869.96206665 C357.59835049 1874.26944193 348.67245785 1878.55340957 339.73730469 1882.81884766 C332.02311851 1886.50421625 324.32268829 1890.21783371 316.625 1893.9375 C302.41474739 1900.80390823 288.18806621 1907.63576029 273.95703125 1914.45898438 C261.79690425 1920.28992876 249.6431247 1926.13373681 237.5 1932 C223.33109783 1938.84490288 209.14605658 1945.65590227 194.95703125 1952.45898438 C182.13325957 1958.6081553 169.31802621 1964.77462601 156.51281738 1970.96234131 C147.59945845 1975.26891092 138.67531512 1979.55226815 129.74169922 1983.81665039 C121.9839085 1987.52264009 114.24079052 1991.25868514 106.5 1995 C96.92414298 1999.62824772 87.33969145 2004.23776061 77.73999023 2008.81640625 C72.47599965 2011.32956679 67.2201625 2013.85885577 61.97265625 2016.40625 C1.7018659 2045.65958713 1.7018659 2045.65958713 -26 2047 C-26.92039062 2047.05285156 -27.84078125 2047.10570313 -28.7890625 2047.16015625 C-45.11841404 2047.64539538 -61.76122781 2044.84452653 -77 2039 C-77.65129883 2038.75266113 -78.30259766 2038.50532227 -78.97363281 2038.25048828 C-100.43710356 2029.91521064 -118.11166951 2016.48380573 -133 1999 C-134.49521124 1997.32903587 -135.99529227 1995.66241765 -137.5 1994 C-139.72829114 1991.52497766 -141.9557884 1989.04928246 -144.1796875 1986.5703125 C-148.30097727 1981.97969436 -152.44870713 1977.41550032 -156.625 1972.875 C-159.60218281 1969.63782784 -162.55952856 1966.38862271 -165.4375 1963.0625 C-169.06212089 1958.87890143 -172.83385067 1954.8356539 -176.59741211 1950.77758789 C-179.82675871 1947.28928664 -182.98499037 1943.7526582 -186.09375 1940.15625 C-188.68284958 1937.22759638 -191.34194681 1934.36601823 -194 1931.5 C-197.7655356 1927.43985037 -201.47220026 1923.34588598 -205.09375 1919.15625 C-207.68284958 1916.22759638 -210.34194681 1913.36601823 -213 1910.5 C-216.7655356 1906.43985037 -220.47220026 1902.34588598 -224.09375 1898.15625 C-226.68285002 1895.22759587 -229.34196234 1892.36603327 -232 1889.5 C-235.78884157 1885.41431269 -239.52171947 1881.29606631 -243.16796875 1877.08203125 C-245.99864261 1873.86508207 -248.90767016 1870.7202932 -251.80834961 1867.56665039 C-256.97628343 1861.94571501 -262.07411163 1856.26268128 -267.171875 1850.578125 C-271.29644476 1845.98551896 -275.44621893 1841.41820551 -279.625 1836.875 C-282.60218281 1833.63782784 -285.55952856 1830.38862271 -288.4375 1827.0625 C-291.54964124 1823.47041409 -294.76872086 1819.98448008 -298 1816.5 C-301.78881936 1812.41429121 -305.52171864 1808.29606727 -309.16796875 1804.08203125 C-312.00000723 1800.86353123 -314.91027948 1797.71706589 -317.81274414 1794.56225586 C-321.46457177 1790.59108822 -325.07703218 1786.5861756 -328.6796875 1782.5703125 C-331.31079807 1779.65571526 -333.96654417 1776.76462591 -336.625 1773.875 C-340.18507038 1770.00366664 -343.68705987 1766.09051949 -347.1328125 1762.1171875 C-349.97794671 1758.89111482 -352.89632879 1755.7326456 -355.80810547 1752.56689453 C-360.97615573 1746.94591004 -366.07403506 1741.26276666 -371.171875 1735.578125 C-375.29644476 1730.98551896 -379.44621893 1726.41820551 -383.625 1721.875 C-386.60218281 1718.63782784 -389.55952856 1715.38862271 -392.4375 1712.0625 C-395.54964124 1708.47041409 -398.76872086 1704.98448008 -402 1701.5 C-405.78881936 1697.41429121 -409.52171864 1693.29606727 -413.16796875 1689.08203125 C-415.99864261 1685.86508207 -418.90767016 1682.7202932 -421.80834961 1679.56665039 C-426.97628343 1673.94571501 -432.07411163 1668.26268128 -437.171875 1662.578125 C-441.29644476 1657.98551896 -445.44621893 1653.41820551 -449.625 1648.875 C-452.60218281 1645.63782784 -455.55952856 1642.38862271 -458.4375 1639.0625 C-462.06212089 1634.87890143 -465.83385067 1630.8356539 -469.59741211 1626.77758789 C-472.82675871 1623.28928664 -475.98499037 1619.7526582 -479.09375 1616.15625 C-481.68285002 1613.22759587 -484.34196234 1610.36603327 -487 1607.5 C-490.78884157 1603.41431269 -494.52171947 1599.29606631 -498.16796875 1595.08203125 C-500.99864261 1591.86508207 -503.90767016 1588.7202932 -506.80834961 1585.56665039 C-511.97628343 1579.94571501 -517.07411163 1574.26268128 -522.171875 1568.578125 C-526.29644476 1563.98551896 -530.44621893 1559.41820551 -534.625 1554.875 C-537.60218281 1551.63782784 -540.55952856 1548.38862271 -543.4375 1545.0625 C-546.54964124 1541.47041409 -549.76872086 1537.98448008 -553 1534.5 C-556.78881936 1530.41429121 -560.52171864 1526.29606727 -564.16796875 1522.08203125 C-566.99864261 1518.86508207 -569.90767016 1515.7202932 -572.80834961 1512.56665039 C-577.97628343 1506.94571501 -583.07411163 1501.26268128 -588.171875 1495.578125 C-592.29644476 1490.98551896 -596.44621893 1486.41820551 -600.625 1481.875 C-603.60218281 1478.63782784 -606.55952856 1475.38862271 -609.4375 1472.0625 C-613.06212089 1467.87890143 -616.83385067 1463.8356539 -620.59741211 1459.77758789 C-623.82675871 1456.28928664 -626.98499037 1452.7526582 -630.09375 1449.15625 C-632.68284958 1446.22759638 -635.34194681 1443.36601823 -638 1440.5 C-641.7655356 1436.43985037 -645.47220026 1432.34588598 -649.09375 1428.15625 C-651.68285002 1425.22759587 -654.34196234 1422.36603327 -657 1419.5 C-660.78884157 1415.41431269 -664.52171947 1411.29606631 -668.16796875 1407.08203125 C-670.99864261 1403.86508207 -673.90767016 1400.7202932 -676.80834961 1397.56665039 C-681.97628343 1391.94571501 -687.07411163 1386.26268128 -692.171875 1380.578125 C-696.29644476 1375.98551896 -700.44621893 1371.41820551 -704.625 1366.875 C-707.60218281 1363.63782784 -710.55952856 1360.38862271 -713.4375 1357.0625 C-717.06212089 1352.87890143 -720.83385067 1348.8356539 -724.59741211 1344.77758789 C-727.82675871 1341.28928664 -730.98499037 1337.7526582 -734.09375 1334.15625 C-736.68285002 1331.22759587 -739.34196234 1328.36603327 -742 1325.5 C-745.78884157 1321.41431269 -749.52171947 1317.29606631 -753.16796875 1313.08203125 C-755.99864261 1309.86508207 -758.90767016 1306.7202932 -761.80834961 1303.56665039 C-766.97628343 1297.94571501 -772.07411163 1292.26268128 -777.171875 1286.578125 C-781.29644799 1281.98551536 -785.44646545 1277.41843472 -789.625 1272.875 C-795.26724474 1266.73390716 -800.86316267 1260.57515178 -806 1254 C-809.48509931 1255.54444076 -812.14322337 1257.62475353 -815.0625 1260.0625 C-816.03316406 1260.86816406 -817.00382813 1261.67382812 -818.00390625 1262.50390625 C-818.99261719 1263.32761719 -819.98132813 1264.15132812 -821 1265 C-822.8317253 1266.50196322 -824.6650256 1268.00200799 -826.5 1269.5 C-827.4075 1270.2425 -828.315 1270.985 -829.25 1271.75 C-838.875 1279.625 -838.875 1279.625 -848.5 1287.5 C-849.41523437 1288.24894531 -850.33046875 1288.99789063 -851.2734375 1289.76953125 C-853.02817784 1291.20499935 -854.78335155 1292.63993796 -856.5390625 1294.07421875 C-862.2034079 1298.70323818 -867.85440553 1303.34813906 -873.5 1308 C-879.98905001 1313.34685204 -886.48844833 1318.68056318 -893 1324 C-894.83345036 1325.49985696 -896.66678171 1326.9998594 -898.5 1328.5 C-902.16666667 1331.5 -905.83333333 1334.5 -909.5 1337.5 C-910.41523437 1338.24894531 -911.33046875 1338.99789063 -912.2734375 1339.76953125 C-914.02817784 1341.20499935 -915.78335155 1342.63993796 -917.5390625 1344.07421875 C-923.2034079 1348.70323818 -928.85440553 1353.34813906 -934.5 1358 C-940.98905001 1363.34685204 -947.48844833 1368.68056318 -954 1374 C-955.83345036 1375.49985696 -957.66678171 1376.9998594 -959.5 1378.5 C-962.1789992 1380.69225146 -964.85824208 1382.88419468 -967.5390625 1385.07421875 C-973.2034079 1389.70323818 -978.85440553 1394.34813906 -984.5 1399 C-990.98905001 1404.34685204 -997.48844833 1409.68056318 -1004 1415 C-1005.83345036 1416.49985696 -1007.66678171 1417.9998594 -1009.5 1419.5 C-1013.16666667 1422.5 -1016.83333333 1425.5 -1020.5 1428.5 C-1021.41523437 1429.24894531 -1022.33046875 1429.99789063 -1023.2734375 1430.76953125 C-1025.02817784 1432.20499935 -1026.78335155 1433.63993796 -1028.5390625 1435.07421875 C-1034.2034079 1439.70323818 -1039.85440553 1444.34813906 -1045.5 1449 C-1051.98905001 1454.34685204 -1058.48844833 1459.68056318 -1065 1465 C-1066.83345036 1466.49985696 -1068.66678171 1467.9998594 -1070.5 1469.5 C-1074.16666667 1472.5 -1077.83333333 1475.5 -1081.5 1478.5 C-1082.41523437 1479.24894531 -1083.33046875 1479.99789063 -1084.2734375 1480.76953125 C-1086.02817784 1482.20499935 -1087.78335155 1483.63993796 -1089.5390625 1485.07421875 C-1095.2034079 1489.70323818 -1100.85440553 1494.34813906 -1106.5 1499 C-1112.98905001 1504.34685204 -1119.48844833 1509.68056318 -1126 1515 C-1127.83345036 1516.49985696 -1129.66678171 1517.9998594 -1131.5 1519.5 C-1138.83333333 1525.5 -1146.16666667 1531.5 -1153.5 1537.5 C-1154.41523437 1538.24894531 -1155.33046875 1538.99789063 -1156.2734375 1539.76953125 C-1158.02817784 1541.20499935 -1159.78335155 1542.63993796 -1161.5390625 1544.07421875 C-1167.2034079 1548.70323818 -1172.85440553 1553.34813906 -1178.5 1558 C-1185.85700711 1564.06203194 -1193.21611803 1570.12156216 -1200.62109375 1576.125 C-1205.81232932 1580.34429161 -1210.93125035 1584.63514798 -1216 1589 C-1221.9236069 1594.09726174 -1227.91107684 1599.10038508 -1234 1604 C-1234.54124512 1604.44230957 -1235.08249023 1604.88461914 -1235.64013672 1605.34033203 C-1256.97944121 1622.76692907 -1278.55764465 1631.11169191 -1306.28125 1629.6796875 C-1318.60578415 1628.23124001 -1330.04708077 1624.10140659 -1341.35848999 1619.2041626 C-1343.6522684 1618.21113736 -1345.95179449 1617.23259658 -1348.25317383 1616.25732422 C-1350.69706703 1615.22165462 -1353.14064253 1614.18531856 -1355.58250427 1613.14486694 C-1363.61364861 1609.72473989 -1371.6872524 1606.41180457 -1379.76870728 1603.11270142 C-1383.85377605 1601.44458485 -1387.93675344 1599.77137081 -1392.01953125 1598.09765625 C-1393.24771828 1597.59418922 -1393.24771828 1597.59418922 -1394.50071716 1597.08055115 C-1405.50261382 1592.56726887 -1416.48661265 1588.01068418 -1427.46728516 1583.44604492 C-1429.17218339 1582.73742622 -1430.8770988 1582.02884886 -1432.58203125 1581.3203125 C-1433.42878418 1580.96840347 -1434.27553711 1580.61649445 -1435.14794922 1580.25392151 C-1440.53878882 1578.01568314 -1445.935379 1575.79189444 -1451.33624268 1573.57795715 C-1455.02636875 1572.06490734 -1458.71467477 1570.54744791 -1462.40289307 1569.02975464 C-1464.14024193 1568.31625546 -1465.87844795 1567.6048389 -1467.61761475 1566.89578247 C-1476.15983144 1563.41236606 -1484.61079241 1559.82945444 -1492.875 1555.72265625 C-1493.84851158 1555.24021706 -1493.84851158 1555.24021706 -1494.84169006 1554.74803162 C-1500.11632821 1552.06965976 -1504.56898625 1548.88579136 -1509 1545 C-1509.721875 1544.43152344 -1510.44375 1543.86304688 -1511.1875 1543.27734375 C-1526.78861029 1530.52018586 -1537.00857198 1509.87253666 -1539.22504906 1489.98024459 C-1539.5699103 1485.10988998 -1539.53569368 1480.24124441 -1539.50336456 1475.36157131 C-1539.50754813 1473.74094428 -1539.51348126 1472.12032101 -1539.52098203 1470.49970594 C-1539.53645215 1466.07436045 -1539.52729511 1461.64936748 -1539.51387022 1457.22402821 C-1539.5036749 1452.39895252 -1539.51678218 1447.57392866 -1539.52684355 1442.74886042 C-1539.54126034 1434.30152375 -1539.54087053 1425.85428942 -1539.53065491 1417.40694809 C-1539.51550521 1404.84537797 -1539.52327017 1392.28389395 -1539.53548814 1379.72232439 C-1539.55653906 1357.28577272 -1539.55473037 1334.84926665 -1539.54317249 1312.41271067 C-1539.53310799 1292.77866606 -1539.53048452 1273.14463816 -1539.53526306 1253.51059151 C-1539.5355686 1252.20792955 -1539.53587414 1250.90526758 -1539.53618894 1249.56313102 C-1539.53743431 1244.27513629 -1539.53870791 1238.98714157 -1539.540028 1233.69914686 C-1539.54367398 1218.91797723 -1539.54597833 1204.13680758 -1539.54717255 1189.35563755 C-1539.54722713 1188.68259457 -1539.54728171 1188.00955159 -1539.54733795 1187.31611336 C-1539.54897454 1165.87688472 -1539.54447016 1144.43766185 -1539.53577423 1122.99843502 C-1539.53549323 1122.30328825 -1539.53521224 1121.60814148 -1539.53492273 1120.89192965 C-1539.53034317 1109.603857 -1539.52546521 1098.31578447 -1539.52056203 1087.02771195 C-1539.50113623 1042.25796057 -1539.50203994 997.48825704 -1539.52148438 952.71850586 C-1539.52636929 941.43487776 -1539.53121356 930.15124965 -1539.53577423 918.86762142 C-1539.53619692 917.82540417 -1539.53619692 917.82540417 -1539.53662815 916.76213202 C-1539.54525508 895.34394368 -1539.54890958 873.92575933 -1539.54717255 852.50756931 C-1539.54709104 851.49877047 -1539.54709104 851.49877047 -1539.54700789 850.46959185 C-1539.5457018 835.04294283 -1539.54288665 819.61629441 -1539.53903532 804.18964583 C-1539.53775246 798.91162813 -1539.5365011 793.63361043 -1539.53526306 788.35559273 C-1539.53494675 787.05602033 -1539.53463044 785.75644792 -1539.53430455 784.41749454 C-1539.52975529 764.79547799 -1539.53507457 745.17347997 -1539.54518127 725.55146599 C-1539.55661576 703.24041296 -1539.55376433 680.92941263 -1539.5320583 658.61836617 C-1539.52031185 646.13274596 -1539.51954833 633.64723986 -1539.534643 621.1616226 C-1539.54361481 612.82047141 -1539.53802616 604.47941169 -1539.52062392 596.13827405 C-1539.51111404 591.38671553 -1539.50784428 586.63538367 -1539.52224785 581.88383233 C-1539.53523628 577.5549202 -1539.52958397 573.22643431 -1539.50952521 568.89755282 C-1539.50552102 567.34741587 -1539.50809607 565.79724303 -1539.51834896 564.24713481 C-1539.59994467 550.96022087 -1537.54356224 538.5248493 -1531.1875 526.6875 C-1530.83840576 526.02000732 -1530.48931152 525.35251465 -1530.12963867 524.66479492 C-1512.28420485 491.19092758 -1478.55178128 480.80679801 -1445.54577637 467.1315918 C-1436.89919331 463.54734441 -1428.26514455 459.93331763 -1419.63217163 456.31643677 C-1416.92720728 455.18318785 -1414.22205296 454.05039355 -1411.5168457 452.91772461 C-1404.13367269 449.82624985 -1396.75088326 446.73386051 -1389.36865234 443.64013672 C-1387.97188766 443.05480164 -1387.97188766 443.05480164 -1386.54690552 442.4576416 C-1384.67406139 441.67277971 -1382.8012382 440.88786785 -1380.92843628 440.10290527 C-1376.35541863 438.18654352 -1371.78162096 436.27208578 -1367.20605469 434.36181641 C-1365.44855558 433.62795872 -1363.69106842 432.89407245 -1361.93359375 432.16015625 C-1360.65937057 431.62811584 -1360.65937057 431.62811584 -1359.35940552 431.08532715 C-1354.70122725 429.13782425 -1350.0504036 427.17439311 -1345.40826416 425.18896484 C-1342.77338713 424.06324386 -1340.13478614 422.94643677 -1337.49554443 421.83099365 C-1335.77730099 421.10066914 -1334.06450661 420.35756348 -1332.35205078 419.61376953 C-1321.03545962 414.84492261 -1309.78596882 412.4387841 -1297.5 412.625 C-1296.50806641 412.63515137 -1295.51613281 412.64530273 -1294.49414062 412.65576172 C-1267.0837775 413.23239852 -1247.22413791 426.81711148 -1227.51171875 444.765625 C-1224.11677838 447.78569637 -1220.58703654 450.62356889 -1217.0546875 453.48046875 C-1213.45960494 456.44572227 -1209.94769091 459.49772024 -1206.4375 462.5625 C-1201.50642905 466.86230007 -1196.52555004 471.06167377 -1191.38671875 475.11328125 C-1186.87446403 478.68025184 -1182.44654657 482.35171144 -1178 486 C-1176.16689838 487.50028317 -1174.33356573 489.00028408 -1172.5 490.5 C-1171.58476563 491.24894531 -1170.66953125 491.99789063 -1169.7265625 492.76953125 C-1167.97182216 494.20499935 -1166.21664845 495.63993796 -1164.4609375 497.07421875 C-1158.0516115 502.31205163 -1151.66056804 507.57177219 -1145.27246094 512.83544922 C-1139.52544938 517.56986763 -1133.76644221 522.28926029 -1128 527 C-1125.24195336 529.2562244 -1122.48426003 531.51288017 -1119.7265625 533.76953125 C-1117.97182216 535.20499935 -1116.21664845 536.63993796 -1114.4609375 538.07421875 C-1108.0516115 543.31205163 -1101.66056804 548.57177219 -1095.27246094 553.83544922 C-1089.52544938 558.56986763 -1083.76644221 563.28926029 -1078 568 C-1076.16654964 569.49985696 -1074.33321829 570.9998594 -1072.5 572.5 C-1071.5925 573.2425 -1070.685 573.985 -1069.75 574.75 C-1050.5 590.5 -1050.5 590.5 -1047.7265625 592.76953125 C-1045.97182216 594.20499935 -1044.21664845 595.63993796 -1042.4609375 597.07421875 C-1036.0516115 602.31205163 -1029.66056804 607.57177219 -1023.27246094 612.83544922 C-1017.52544938 617.56986763 -1011.76644221 622.28926029 -1006 627 C-1004.16654964 628.49985696 -1002.33321829 629.9998594 -1000.5 631.5 C-999.5925 632.2425 -998.685 632.985 -997.75 633.75 C-989.5 640.5 -989.5 640.5 -986.7265625 642.76953125 C-984.97182216 644.20499935 -983.21664845 645.63993796 -981.4609375 647.07421875 C-975.0516115 652.31205163 -968.66056804 657.57177219 -962.27246094 662.83544922 C-956.52544938 667.56986763 -950.76644221 672.28926029 -945 677 C-942.24195336 679.2562244 -939.48426003 681.51288017 -936.7265625 683.76953125 C-934.97182216 685.20499935 -933.21664845 686.63993796 -931.4609375 688.07421875 C-925.0516115 693.31205163 -918.66056804 698.57177219 -912.27246094 703.83544922 C-906.52544938 708.56986763 -900.76644221 713.28926029 -895 718 C-893.16654964 719.49985696 -891.33321829 720.9998594 -889.5 722.5 C-888.5925 723.2425 -887.685 723.985 -886.75 724.75 C-878.5 731.5 -878.5 731.5 -875.7265625 733.76953125 C-873.97182216 735.20499935 -872.21664845 736.63993796 -870.4609375 738.07421875 C-864.0516115 743.31205163 -857.66056804 748.57177219 -851.27246094 753.83544922 C-845.52544938 758.56986763 -839.76644221 763.28926029 -834 768 C-832.16654964 769.49985696 -830.33321829 770.9998594 -828.5 772.5 C-827.60152344 773.23476563 -826.70304688 773.96953125 -825.77734375 774.7265625 C-823.8514851 776.30300376 -821.9271071 777.88125492 -820.00390625 779.4609375 C-819.03324219 780.25757813 -818.06257812 781.05421875 -817.0625 781.875 C-816.18722656 782.59429688 -815.31195312 783.31359375 -814.41015625 784.0546875 C-812.30601354 785.7530069 -810.1755913 787.39480735 -808 789 C-804.37598787 787.50153206 -802.3682297 785.44211507 -799.8125 782.5 C-799.02230469 781.60023438 -798.23210938 780.70046875 -797.41796875 779.7734375 C-796.62003906 778.85820313 -795.82210937 777.94296875 -795 777 C-793.5450832 775.37194035 -792.08679642 773.74688543 -790.625 772.125 C-789.88765625 771.30515625 -789.1503125 770.4853125 -788.390625 769.640625 C-785.73319538 766.70529424 -783.05548921 763.78925015 -780.375 760.875 C-777.39781719 757.63782784 -774.44047144 754.38862271 -771.5625 751.0625 C-767.93787911 746.87890143 -764.16614933 742.8356539 -760.40258789 738.77758789 C-757.72598962 735.88635872 -755.07688821 732.98110596 -752.5 730 C-749.41102693 726.42648214 -746.21157787 722.96288886 -743 719.5 C-739.21115843 715.41431269 -735.47828053 711.29606631 -731.83203125 707.08203125 C-729.00135739 703.86508207 -726.09232984 700.7202932 -723.19165039 697.56665039 C-718.75763961 692.74397097 -714.37383922 687.87730273 -710 683 C-705.15478907 677.59706695 -700.28791402 672.21636096 -695.375 666.875 C-692.39781719 663.63782784 -689.44047144 660.38862271 -686.5625 657.0625 C-682.93855356 652.87967989 -679.16744254 648.83728193 -675.40478516 644.77978516 C-672.15135213 641.26517971 -668.96591238 637.70391333 -665.83203125 634.08203125 C-663.00135739 630.86508207 -660.09232984 627.7202932 -657.19165039 624.56665039 C-652.75763961 619.74397097 -648.37383922 614.87730273 -644 610 C-639.15478907 604.59706695 -634.28791402 599.21636096 -629.375 593.875 C-626.39781719 590.63782784 -623.44047144 587.38862271 -620.5625 584.0625 C-616.93787911 579.87890143 -613.16614933 575.8356539 -609.40258789 571.77758789 C-606.72598962 568.88635872 -604.07688821 565.98110596 -601.5 563 C-598.41102693 559.42648214 -595.21157787 555.96288886 -592 552.5 C-588.21115843 548.41431269 -584.47828053 544.29606631 -580.83203125 540.08203125 C-578.00135739 536.86508207 -575.09232984 533.7202932 -572.19165039 530.56665039 C-567.75763961 525.74397097 -563.37383922 520.87730273 -559 516 C-554.15478907 510.59706695 -549.28791402 505.21636096 -544.375 499.875 C-541.39781719 496.63782784 -538.44047144 493.38862271 -535.5625 490.0625 C-531.93787911 485.87890143 -528.16614933 481.8356539 -524.40258789 477.77758789 C-521.72598962 474.88635872 -519.07688821 471.98110596 -516.5 469 C-512.89917386 464.83433839 -509.14609026 460.81399952 -505.40234375 456.77734375 C-502.72584071 453.88618383 -500.07681276 450.98101868 -497.5 448 C-494.41102693 444.42648214 -491.21157787 440.96288886 -488 437.5 C-484.21115843 433.41431269 -480.47828053 429.29606631 -476.83203125 425.08203125 C-474.00135739 421.86508207 -471.09232984 418.7202932 -468.19165039 415.56665039 C-463.75763961 410.74397097 -459.37383922 405.87730273 -455 401 C-450.15478907 395.59706695 -445.28791402 390.21636096 -440.375 384.875 C-437.39781719 381.63782784 -434.44047144 378.38862271 -431.5625 375.0625 C-427.93855356 370.87967989 -424.16744254 366.83728193 -420.40478516 362.77978516 C-417.15135213 359.26517971 -413.96591238 355.70391333 -410.83203125 352.08203125 C-408.00135739 348.86508207 -405.09232984 345.7202932 -402.19165039 342.56665039 C-397.75763961 337.74397097 -393.37383922 332.87730273 -389 328 C-384.15478907 322.59706695 -379.28791402 317.21636096 -374.375 311.875 C-371.39781719 308.63782784 -368.44047144 305.38862271 -365.5625 302.0625 C-361.93855356 297.87967989 -358.16744254 293.83728193 -354.40478516 289.77978516 C-351.15135213 286.26517971 -347.96591238 282.70391333 -344.83203125 279.08203125 C-342.00135739 275.86508207 -339.09232984 272.7202932 -336.19165039 269.56665039 C-331.75763961 264.74397097 -327.37383922 259.87730273 -323 255 C-318.15478907 249.59706695 -313.28791402 244.21636096 -308.375 238.875 C-305.39781719 235.63782784 -302.44047144 232.38862271 -299.5625 229.0625 C-295.93787911 224.87890143 -292.16614933 220.8356539 -288.40258789 216.77758789 C-285.72598962 213.88635872 -283.07688821 210.98110596 -280.5 208 C-277.41102693 204.42648214 -274.21157787 200.96288886 -271 197.5 C-267.21115843 193.41431269 -263.47828053 189.29606631 -259.83203125 185.08203125 C-257.00135739 181.86508207 -254.09232984 178.7202932 -251.19165039 175.56665039 C-246.75763961 170.74397097 -242.37383922 165.87730273 -238 161 C-233.15478907 155.59706695 -228.28791402 150.21636096 -223.375 144.875 C-220.39781719 141.63782784 -217.44047144 138.38862271 -214.5625 135.0625 C-210.93787911 130.87890143 -207.16614933 126.8356539 -203.40258789 122.77758789 C-200.72598962 119.88635872 -198.07688821 116.98110596 -195.5 114 C-191.89917386 109.83433839 -188.14609026 105.81399952 -184.40234375 101.77734375 C-181.72584071 98.88618383 -179.07681276 95.98101868 -176.5 93 C-173.41102693 89.42648214 -170.21157787 85.96288886 -167 82.5 C-163.21115843 78.41431269 -159.47828053 74.29606631 -155.83203125 70.08203125 C-153.00135739 66.86508207 -150.09232984 63.7202932 -147.19165039 60.56665039 C-142.00677697 54.92729054 -136.87185008 49.24290327 -131.79296875 43.5078125 C-112.90607709 22.2724632 -91.59066713 7.56717004 -64 0 C-62.23849609 -0.50853516 -62.23849609 -0.50853516 -60.44140625 -1.02734375 C-42.07081727 -5.39362832 -18.11610849 -5.19906117 0 0 Z M0.25 590.3125 C-3.60090023 593.81835957 -7.57122297 597.06815206 -11.6875 600.25 C-16.57653064 604.03972588 -21.33028046 607.9432508 -26 612 C-30.56997093 615.96833997 -35.21502448 619.79371452 -40 623.5 C-45.48602938 627.74990358 -50.77855144 632.18215871 -56.0246582 636.72387695 C-60.13325882 640.27561514 -64.31783229 643.7088739 -68.578125 647.078125 C-73.09662444 650.66377294 -77.54044287 654.34152315 -82 658 C-83.70822358 659.39596765 -85.41655857 660.79179898 -87.125 662.1875 C-91.92537595 666.11445511 -96.71356475 670.05606968 -101.5 674 C-107.98905001 679.34685204 -114.48844833 684.68056318 -121 690 C-122.83345036 691.49985696 -124.66678171 692.9998594 -126.5 694.5 C-129.1789992 696.69225146 -131.85824208 698.88419468 -134.5390625 701.07421875 C-140.2034079 705.70323818 -145.85440553 710.34813906 -151.5 715 C-157.98905001 720.34685204 -164.48844833 725.68056318 -171 731 C-172.83345036 732.49985696 -174.66678171 733.9998594 -176.5 735.5 C-180.16666667 738.5 -183.83333333 741.5 -187.5 744.5 C-188.41523437 745.24894531 -189.33046875 745.99789062 -190.2734375 746.76953125 C-192.02817784 748.20499935 -193.78335155 749.63993796 -195.5390625 751.07421875 C-201.2034079 755.70323818 -206.85440553 760.34813906 -212.5 765 C-218.98905001 770.34685204 -225.48844833 775.68056318 -232 781 C-233.83345036 782.49985696 -235.66678171 783.9998594 -237.5 785.5 C-240.1789992 787.69225146 -242.85824208 789.88419468 -245.5390625 792.07421875 C-251.2034079 796.70323818 -256.85440553 801.34813906 -262.5 806 C-268.98905001 811.34685204 -275.48844833 816.68056318 -282 822 C-283.83345036 823.49985696 -285.66678171 824.9998594 -287.5 826.5 C-291.16666667 829.5 -294.83333333 832.5 -298.5 835.5 C-299.41523437 836.24894531 -300.33046875 836.99789062 -301.2734375 837.76953125 C-303.02817784 839.20499935 -304.78335155 840.63993796 -306.5390625 842.07421875 C-312.2034079 846.70323818 -317.85440553 851.34813906 -323.5 856 C-329.98905001 861.34685204 -336.48844833 866.68056318 -343 872 C-344.83345036 873.49985696 -346.66678171 874.9998594 -348.5 876.5 C-352.16666667 879.5 -355.83333333 882.5 -359.5 885.5 C-360.41523437 886.24894531 -361.33046875 886.99789063 -362.2734375 887.76953125 C-364.02817784 889.20499935 -365.78335155 890.63993796 -367.5390625 892.07421875 C-373.2034079 896.70323818 -378.85440553 901.34813906 -384.5 906 C-390.98905001 911.34685204 -397.48844833 916.68056318 -404 922 C-405.83345036 923.49985696 -407.66678171 924.9998594 -409.5 926.5 C-412.1789992 928.69225146 -414.85824208 930.88419468 -417.5390625 933.07421875 C-423.2034079 937.70323818 -428.85440553 942.34813906 -434.5 947 C-440.98905001 952.34685204 -447.48844833 957.68056318 -454 963 C-455.83345036 964.49985696 -457.66678171 965.9998594 -459.5 967.5 C-463.16666667 970.5 -466.83333333 973.5 -470.5 976.5 C-471.41523437 977.24894531 -472.33046875 977.99789063 -473.2734375 978.76953125 C-475.02817784 980.20499935 -476.78335155 981.63993796 -478.5390625 983.07421875 C-484.20340825 987.70323846 -489.85435188 992.34820378 -495.5 997 C-505.28515449 1005.0610779 -515.08098245 1013.10351531 -525 1021 C-518.02767115 1028.19724268 -510.41274148 1034.51920049 -502.50610352 1040.65087891 C-498.23090521 1043.98458696 -494.0922845 1047.44488888 -490 1051 C-485.43002907 1054.96833997 -480.78497552 1058.79371452 -476 1062.5 C-470.51397062 1066.74990358 -465.22144856 1071.18215871 -459.9753418 1075.72387695 C-455.85904239 1079.28227047 -451.66583865 1082.7210233 -447.3984375 1086.09765625 C-439.25898089 1092.55354448 -431.29030544 1099.22901173 -423.27270508 1105.83520508 C-417.52566053 1110.56976372 -411.76653087 1115.28918786 -406 1120 C-404.16654964 1121.49985696 -402.33321829 1122.9998594 -400.5 1124.5 C-399.5925 1125.2425 -398.685 1125.985 -397.75 1126.75 C-389.5 1133.5 -389.5 1133.5 -386.7265625 1135.76953125 C-384.97182216 1137.20499935 -383.21664845 1138.63993796 -381.4609375 1140.07421875 C-375.0516115 1145.31205163 -368.66056804 1150.57177219 -362.27246094 1155.83544922 C-356.52544938 1160.56986763 -350.76644221 1165.28926029 -345 1170 C-343.16654964 1171.49985696 -341.33321829 1172.9998594 -339.5 1174.5 C-338.5925 1175.2425 -337.685 1175.985 -336.75 1176.75 C-328.5 1183.5 -328.5 1183.5 -325.7265625 1185.76953125 C-323.97182216 1187.20499935 -322.21664845 1188.63993796 -320.4609375 1190.07421875 C-314.0516115 1195.31205163 -307.66056804 1200.57177219 -301.27246094 1205.83544922 C-295.52544938 1210.56986763 -289.76644221 1215.28926029 -284 1220 C-281.24195336 1222.2562244 -278.48426003 1224.51288017 -275.7265625 1226.76953125 C-273.97182216 1228.20499935 -272.21664845 1229.63993796 -270.4609375 1231.07421875 C-264.0516115 1236.31205163 -257.66056804 1241.57177219 -251.27246094 1246.83544922 C-245.52544938 1251.56986763 -239.76644221 1256.28926029 -234 1261 C-231.24195336 1263.2562244 -228.48426003 1265.51288017 -225.7265625 1267.76953125 C-223.97182216 1269.20499935 -222.21664845 1270.63993796 -220.4609375 1272.07421875 C-214.0516115 1277.31205163 -207.66056804 1282.57177219 -201.27246094 1287.83544922 C-195.52544938 1292.56986763 -189.76644221 1297.28926029 -184 1302 C-181.24195336 1304.2562244 -178.48426003 1306.51288017 -175.7265625 1308.76953125 C-173.97182216 1310.20499935 -172.21664845 1311.63993796 -170.4609375 1313.07421875 C-164.0516115 1318.31205163 -157.66056804 1323.57177219 -151.27246094 1328.83544922 C-145.52544938 1333.56986763 -139.76644221 1338.28926029 -134 1343 C-131.24195336 1345.2562244 -128.48426003 1347.51288017 -125.7265625 1349.76953125 C-123.97182216 1351.20499935 -122.21664845 1352.63993796 -120.4609375 1354.07421875 C-114.0516115 1359.31205163 -107.66056804 1364.57177219 -101.27246094 1369.83544922 C-95.52544938 1374.56986763 -89.76644221 1379.28926029 -84 1384 C-82.16654964 1385.49985696 -80.33321829 1386.9998594 -78.5 1388.5 C-77.5925 1389.2425 -76.685 1389.985 -75.75 1390.75 C-67.5 1397.5 -67.5 1397.5 -64.7265625 1399.76953125 C-62.97182216 1401.20499935 -61.21664845 1402.63993796 -59.4609375 1404.07421875 C-53.0516115 1409.31205163 -46.66056804 1414.57177219 -40.27246094 1419.83544922 C-34.52544938 1424.56986763 -28.76644221 1429.28926029 -23 1434 C-21.16654964 1435.49985696 -19.33321829 1436.9998594 -17.5 1438.5 C-16.59765625 1439.23734375 -15.6953125 1439.9746875 -14.765625 1440.734375 C-12.87651015 1442.28195497 -10.99125696 1443.83425776 -9.109375 1445.390625 C-7.69398438 1446.55851562 -7.69398438 1446.55851562 -6.25 1447.75 C-5.40953125 1448.44609375 -4.5690625 1449.1421875 -3.703125 1449.859375 C-0.55493026 1452.35245407 2.73221686 1454.66586918 6 1457 C6 1169.9 6 882.8 6 587 C3.11897921 587 2.33691206 588.35503925 0.25 590.3125 Z M-1281 729 C-1281 922.05 -1281 1115.1 -1281 1314 C-1274.97682346 1308.84739706 -1274.97682346 1308.84739706 -1269.625 1303.25 C-1268.86445312 1302.38890625 -1268.10390625 1301.5278125 -1267.3203125 1300.640625 C-1266.55460937 1299.76921875 -1265.78890625 1298.8978125 -1265 1298 C-1263.50229197 1296.33127341 -1262.00231216 1294.66458281 -1260.5 1293 C-1258.27170886 1290.52497766 -1256.0442116 1288.04928246 -1253.8203125 1285.5703125 C-1249.69902273 1280.97969436 -1245.55129287 1276.41550032 -1241.375 1271.875 C-1238.39781719 1268.63782784 -1235.44047144 1265.38862271 -1232.5625 1262.0625 C-1228.93855356 1257.87967989 -1225.16744254 1253.83728193 -1221.40478516 1249.77978516 C-1218.15135213 1246.26517971 -1214.96591238 1242.70391333 -1211.83203125 1239.08203125 C-1209.00135739 1235.86508207 -1206.09232984 1232.7202932 -1203.19165039 1229.56665039 C-1198.75763961 1224.74397097 -1194.37383922 1219.87730273 -1190 1215 C-1185.15478859 1209.59706641 -1180.28787784 1204.21639461 -1175.375 1198.875 C-1172.37819989 1195.61609506 -1169.40085453 1192.34500451 -1166.5 1189 C-1163.13677362 1185.12182987 -1159.66664329 1181.34472189 -1156.19189453 1177.56689453 C-1151.75777273 1172.74416089 -1147.37391589 1167.87738822 -1143 1163 C-1138.15478907 1157.59706695 -1133.28791402 1152.21636096 -1128.375 1146.875 C-1125.39781719 1143.63782784 -1122.44047144 1140.38862271 -1119.5625 1137.0625 C-1115.93787911 1132.87890143 -1112.16614933 1128.8356539 -1108.40258789 1124.77758789 C-1105.72598962 1121.88635872 -1103.07688821 1118.98110596 -1100.5 1116 C-1097.41102693 1112.42648214 -1094.21157787 1108.96288886 -1091 1105.5 C-1087.21115843 1101.41431269 -1083.47828053 1097.29606631 -1079.83203125 1093.08203125 C-1077.00135739 1089.86508207 -1074.09232984 1086.7202932 -1071.19165039 1083.56665039 C-1066.75763961 1078.74397097 -1062.37383922 1073.87730273 -1058 1069 C-1053.15478859 1063.59706641 -1048.28787784 1058.21639461 -1043.375 1052.875 C-1039.82052265 1049.0096425 -1036.31990585 1045.10633171 -1032.88671875 1041.1328125 C-1031.36874492 1039.41684209 -1029.83047435 1037.73111804 -1028.26953125 1036.0546875 C-1027.78226563 1035.53003906 -1027.295 1035.00539063 -1026.79296875 1034.46484375 C-1025.83435739 1033.43541149 -1024.87232592 1032.4091491 -1023.90625 1031.38671875 C-1020.85550316 1028.1073857 -1018.38683819 1024.76751508 -1016 1021 C-1016.38744385 1020.5875 -1016.7748877 1020.175 -1017.17407227 1019.75 C-1030.11721426 1005.95834818 -1030.11721426 1005.95834818 -1035.23828125 1000.01171875 C-1037.5747114 997.3437331 -1039.97416251 994.73485446 -1042.375 992.125 C-1048.02211499 985.98557735 -1053.60271549 979.78833884 -1059.171875 973.578125 C-1063.29644476 968.98551896 -1067.44621893 964.41820551 -1071.625 959.875 C-1074.60218281 956.63782784 -1077.55952856 953.38862271 -1080.4375 950.0625 C-1083.54964124 946.47041409 -1086.76872086 942.98448008 -1090 939.5 C-1093.78881936 935.41429121 -1097.52171864 931.29606727 -1101.16796875 927.08203125 C-1103.99864261 923.86508207 -1106.90767016 920.7202932 -1109.80834961 917.56665039 C-1114.97628343 911.94571501 -1120.07411163 906.26268128 -1125.171875 900.578125 C-1129.29644476 895.98551896 -1133.44621893 891.41820551 -1137.625 886.875 C-1140.60218281 883.63782784 -1143.55952856 880.38862271 -1146.4375 877.0625 C-1149.54964124 873.47041409 -1152.76872086 869.98448008 -1156 866.5 C-1159.78881936 862.41429121 -1163.52171864 858.29606727 -1167.16796875 854.08203125 C-1169.99864261 850.86508207 -1172.90767016 847.7202932 -1175.80834961 844.56665039 C-1180.97628343 838.94571501 -1186.07411163 833.26268128 -1191.171875 827.578125 C-1195.29644516 822.9855185 -1199.44624971 818.41823413 -1203.625 813.875 C-1207.1850179 810.00361736 -1210.68705868 806.09052085 -1214.1328125 802.1171875 C-1216.97794671 798.89111482 -1219.89632879 795.7326456 -1222.80810547 792.56689453 C-1227.97615573 786.94591004 -1233.07403506 781.26276666 -1238.171875 775.578125 C-1242.29644516 770.9855185 -1246.44624971 766.41823413 -1250.625 761.875 C-1254.18128738 758.00767416 -1257.68081802 754.09973052 -1261.12109375 750.12890625 C-1264.03053824 746.83234233 -1267.02003304 743.60924736 -1270.00146484 740.37792969 C-1272.60356438 737.5499944 -1275.15024438 734.68989041 -1277.625 731.75 C-1278.800625 730.38875 -1278.800625 730.38875 -1280 729 C-1280.33 729 -1280.66 729 -1281 729 Z " fill="#8D5CC7" transform="translate(1539,3)"/>
<path d="M0 0 C1.90845703 0.49886719 1.90845703 0.49886719 3.85546875 1.0078125 C17.69923034 4.94373572 30.48027502 11.81752362 43.32182312 18.19056702 C49.06230834 21.03906553 54.83671197 23.81245523 60.625 26.5625 C69.2627993 30.68194712 77.88388326 34.83546415 86.5 39 C95.1580937 43.1847124 103.82162393 47.35745423 112.5 51.5 C121.13621304 55.62269636 129.75847991 59.77383708 138.375 63.9375 C151.57240649 70.31449998 164.78328908 76.66310458 178 83 C191.83836134 89.63495245 205.66913283 96.2852024 219.48718262 102.96234131 C227.48316305 106.82567124 235.48595126 110.67427613 243.5 114.5 C252.13619966 118.62272451 260.75847979 122.77383702 269.375 126.9375 C282.57240649 133.31449998 295.78328908 139.66310458 309 146 C322.79171684 152.61258824 336.5762387 159.23970982 350.34838867 165.89294434 C362.88841946 171.95055746 375.44231367 177.97908107 388 184 C396.33508939 187.99634902 404.66897288 191.9951883 413 196 C413.59524475 196.28613159 414.1904895 196.57226318 414.80377197 196.86706543 C422.82587243 200.72389008 430.84264993 204.59144495 438.8515625 208.47558594 C441.55436338 209.78423115 444.26094787 211.08456676 446.96875 212.3828125 C478.77251292 227.75961464 502.66229546 253.3328692 514.54003906 286.7487793 C514.79495117 287.49168213 515.04986328 288.23458496 515.3125 289 C515.54291992 289.66233643 515.77333984 290.32467285 516.01074219 291.00708008 C521.05209723 306.58827248 521.43132688 321.796486 521.38031673 338.01147842 C521.38375381 340.43725666 521.388503 342.86303333 521.3944377 345.28880674 C521.40432388 350.55945736 521.4049772 355.82998704 521.39736467 361.10063258 C521.38602313 368.99102122 521.39209374 376.88133293 521.40142866 384.77172081 C521.41683342 398.22259961 521.41804517 411.67344602 521.41144943 425.12433052 C521.40481606 438.75019412 521.40470378 452.37603457 521.41249657 466.00189781 C521.41322856 467.29417144 521.41322856 467.29417144 521.41397535 468.61255161 C521.41598359 472.12153948 521.4180367 475.63052731 521.42014709 479.13951512 C521.44153544 514.74004487 521.44360375 550.34055751 521.43809005 585.94109208 C521.43733432 590.85850719 521.4366067 595.77592231 521.43590808 600.69333744 C521.43569944 602.158455 521.43569944 602.158455 521.43548659 603.65317089 C521.43253324 625.30745407 521.43554814 646.9617352 521.43980437 668.61601802 C521.44038652 671.58039994 521.44095537 674.54478187 521.44152 677.5091638 C521.44303498 685.4558484 521.44456189 693.40253301 521.44611301 701.34921761 C521.45686854 756.81852205 521.4615728 812.2878246 521.45364285 867.75712967 C521.45349454 868.80254984 521.45334623 869.84797001 521.45319343 870.92506958 C521.45153446 882.58240715 521.44978488 894.2397447 521.44800042 905.89708224 C521.44775889 907.47578751 521.44775889 907.47578751 521.44751247 909.08638583 C521.44620481 917.62723635 521.44620481 917.62723635 521.44555128 921.8551918 C521.43515984 989.17576926 521.44292664 1056.49632057 521.46655273 1123.81689453 C521.47249622 1140.78029501 521.47838781 1157.7436955 521.48396206 1174.7070961 C521.48430583 1175.75162175 521.4846496 1176.7961474 521.48500379 1177.87232534 C521.49553244 1210.06833499 521.5011252 1242.26434247 521.5015192 1274.46035385 C521.50153199 1275.47125536 521.50154477 1276.48215686 521.50155794 1277.52369175 C521.50178624 1299.71592878 521.50078006 1321.90816562 521.49864888 1344.10040255 C521.49789413 1352.04122583 521.49721592 1359.98204911 521.49656873 1367.92287239 C521.49640604 1369.89831462 521.49623838 1371.87375685 521.49606572 1373.84919908 C521.49334544 1405.31527847 521.50189491 1436.78134198 521.51591982 1468.24741796 C521.53033255 1500.8224351 521.52987095 1533.39742207 521.5125451 1565.97243819 C521.51074095 1569.47245808 521.50900076 1572.97247799 521.50731087 1576.47249794 C521.50689037 1577.33144983 521.50646987 1578.19040171 521.50603662 1579.07538245 C521.49974551 1592.66125798 521.50683268 1606.24709196 521.51952007 1619.83296164 C521.5317201 1633.20073594 521.52957357 1646.56844485 521.51229975 1659.93621422 C521.50260398 1667.76694149 521.50371779 1675.59748269 521.52112973 1683.42819766 C521.53284727 1689.25280258 521.52354133 1695.0772271 521.50628388 1700.90181129 C521.50256379 1703.23530462 521.50546315 1705.56882091 521.51599697 1707.90229342 C521.58923405 1725.33422648 520.24027633 1742.43939107 513.75 1758.8125 C513.30503174 1759.97084351 513.30503174 1759.97084351 512.85107422 1761.15258789 C497.55173746 1799.86333809 467.26725851 1821.54735757 431 1839 C429.50509033 1839.72171387 429.50509033 1839.72171387 427.97998047 1840.45800781 C422.29434235 1843.19948631 416.59697963 1845.91571142 410.89501953 1848.62304688 C405.8824236 1851.0071792 400.8787532 1853.40987759 395.875 1855.8125 C394.84769775 1856.30556641 393.82039551 1856.79863281 392.76196289 1857.30664062 C384.00589726 1861.51160333 375.25923073 1865.73594564 366.5133667 1869.96206665 C357.59835049 1874.26944193 348.67245785 1878.55340957 339.73730469 1882.81884766 C332.02311851 1886.50421625 324.32268829 1890.21783371 316.625 1893.9375 C302.41474739 1900.80390823 288.18806621 1907.63576029 273.95703125 1914.45898438 C261.79690425 1920.28992876 249.6431247 1926.13373681 237.5 1932 C223.33109783 1938.84490288 209.14605658 1945.65590227 194.95703125 1952.45898438 C182.13325957 1958.6081553 169.31802621 1964.77462601 156.51281738 1970.96234131 C147.59945845 1975.26891092 138.67531512 1979.55226815 129.74169922 1983.81665039 C121.9839085 1987.52264009 114.24079052 1991.25868514 106.5 1995 C96.92414298 1999.62824772 87.33969145 2004.23776061 77.73999023 2008.81640625 C72.47599965 2011.32956679 67.2201625 2013.85885577 61.97265625 2016.40625 C1.7018659 2045.65958713 1.7018659 2045.65958713 -26 2047 C-26.92039062 2047.05285156 -27.84078125 2047.10570313 -28.7890625 2047.16015625 C-53.6035147 2047.89753661 -80.4043262 2041.15952574 -101 2027 C-100.67 2026.01 -100.34 2025.02 -100 2024 C-98.49759766 2024.52400391 -98.49759766 2024.52400391 -96.96484375 2025.05859375 C-95.62250748 2025.51855513 -94.2800532 2025.97817219 -92.9375 2026.4375 C-92.28072266 2026.66759766 -91.62394531 2026.89769531 -90.94726562 2027.13476562 C-72.40015282 2033.43895668 -52.21113207 2030.24892912 -34.83984375 2022.0234375 C-29.00008584 2019.07224031 -23.97325604 2015.24639555 -19 2011 C-18.34773438 2010.45988281 -17.69546875 2009.91976563 -17.0234375 2009.36328125 C-4.70365143 1998.19671717 4.17699409 1979.43867402 5.18414198 1962.99318797 C5.25584834 1959.55393273 5.26503343 1956.11987312 5.251849 1952.67988652 C5.25396086 1951.34568714 5.25694845 1950.01148892 5.26072434 1948.67729321 C5.26856317 1945.0131388 5.26399644 1941.3490897 5.25738853 1937.68493676 C5.25239273 1933.68295151 5.25904683 1929.68098242 5.26419219 1925.67899969 C5.27163697 1918.63872116 5.27163468 1911.59847287 5.26680271 1904.55819251 C5.25960471 1894.01857791 5.26392233 1883.47898943 5.27048406 1872.93937553 C5.28132512 1854.97720615 5.2826382 1837.01504725 5.27878571 1819.05287552 C5.27491199 1800.84645252 5.27536046 1782.64003733 5.2810955 1764.43361473 C5.28163374 1762.70962108 5.28163374 1762.70962108 5.28218286 1760.95079928 C5.28365774 1756.26986489 5.28516213 1751.58893051 5.28670432 1746.90799615 C5.30234831 1699.36834155 5.3050173 1651.82869232 5.30254826 1604.28903562 C5.30220982 1597.71799131 5.30188772 1591.14694701 5.30158257 1584.5759027 C5.30149101 1582.61821492 5.30149101 1582.61821492 5.30139759 1580.62097789 C5.30012629 1551.71153651 5.302726 1522.80209586 5.30610864 1493.89265469 C5.30687938 1487.29378085 5.3076241 1480.694907 5.30837366 1474.09603316 C5.30867535 1471.44768923 5.30897723 1468.7993453 5.3092793 1466.15100137 C5.30942898 1464.838276 5.30957866 1463.52555063 5.30973287 1462.1730457 C5.3100364 1459.51779859 5.31034108 1456.86255147 5.31064692 1454.20730435 C5.31421206 1423.23797922 5.31707943 1392.26865406 5.31923962 1361.2993288 C5.31928686 1360.62454901 5.31933409 1359.94976921 5.31938276 1359.25454154 C5.32237763 1316.25453298 5.32225237 1273.25452505 5.31981884 1230.25451646 C5.31969925 1228.14003939 5.31958087 1226.02556232 5.31946275 1223.91108525 C5.31859132 1208.34646788 5.31766072 1192.78185051 5.31671212 1177.21723314 C5.31662573 1175.79774838 5.31653936 1174.37826361 5.316453 1172.95877885 C5.31636656 1171.53871286 5.31628012 1170.11864687 5.31619367 1168.69858088 C5.31615088 1167.99544227 5.31610809 1167.29230366 5.316064 1166.56785783 C5.31584761 1163.01504963 5.31563017 1159.46224144 5.31541077 1155.90943325 C5.31127195 1088.80219004 5.31019538 1021.69494997 5.3225708 954.58770752 C5.32270108 953.88115081 5.32283137 953.17459411 5.3229656 952.44662659 C5.3269175 931.08079147 5.33127706 909.71495642 5.33573675 888.3491214 C5.3406128 864.98647426 5.3454467 841.62382712 5.3500185 818.26117992 C5.35015527 817.56370997 5.35029204 816.86624002 5.35043296 816.14763462 C5.35898715 772.46877326 5.36389128 728.7899128 5.36472607 685.11105061 C5.36473934 684.43647396 5.36475261 683.76189731 5.36476628 683.06687894 C5.36535451 652.77703378 5.36500218 622.48718869 5.36376625 592.19734355 C5.36334061 581.60330244 5.36297549 571.00926132 5.36263681 560.41522021 C5.36255151 557.7796243 5.36246257 555.1440284 5.36236999 552.50843249 C5.36092029 510.48511737 5.36805349 468.46180921 5.37937395 426.43849576 C5.39101406 382.94704627 5.39159858 339.45560924 5.37953053 295.96415969 C5.37827866 291.29630262 5.37707518 286.62844555 5.37590981 281.96058846 C5.37561951 280.81499577 5.37532922 279.66940309 5.37503013 278.48909547 C5.37070043 260.33094475 5.37644305 242.1728117 5.38635 224.01466375 C5.39587436 206.1707328 5.39472945 188.32682919 5.38214377 170.48289984 C5.37508051 160.01475464 5.3762498 149.54668792 5.38949216 139.07854827 C5.39746465 132.13004575 5.39459651 125.18160276 5.38284252 118.23310574 C5.37648041 114.29177951 5.3747736 110.35060857 5.38640973 106.40929087 C5.39689387 102.82836397 5.39340504 99.24772412 5.37910133 95.66681291 C5.37509309 93.78815108 5.38566573 91.90947497 5.39698883 90.030843 C5.26720911 69.68681983 -1.91304998 50.39040239 -16.14453125 35.79296875 C-31.99396088 20.29044866 -50.60170591 13.70454429 -72.50073242 13.68530273 C-85.3254737 13.8934446 -96.03701667 17.49093203 -107.20703125 23.609375 C-110 25 -110 25 -113 25 C-99.61452642 12.40827418 -81.54266576 4.7489575 -64 0 C-62.82824219 -0.33773438 -61.65648437 -0.67546875 -60.44921875 -1.0234375 C-42.08240037 -5.39935707 -18.1137885 -5.19839537 0 0 Z " fill="#BA89F2" transform="translate(1539,3)"/>
<path d="M0 0 C4.37172371 4.27982561 8.52288368 8.70140424 12.5 13.34765625 C15.10041256 16.32322714 17.78797783 19.21356415 20.4765625 22.109375 C23.68835962 25.57204774 26.88759943 29.03586871 29.9765625 32.609375 C33.53339288 36.72141793 37.23239934 40.6970712 40.92700195 44.68481445 C45.49267924 49.6160315 49.99313011 54.60328382 54.4765625 59.609375 C55.97612869 61.276432 57.47613303 62.94309495 58.9765625 64.609375 C61.20485364 67.08439734 63.4323509 69.56009254 65.65625 72.0390625 C69.7380492 76.58569293 73.84330725 81.10948311 77.9765625 85.609375 C83.57950902 91.70932579 89.1186906 97.86498547 94.6484375 104.03125 C98.77300726 108.62385604 102.92278143 113.19116949 107.1015625 117.734375 C110.07874531 120.97154716 113.03609106 124.22075229 115.9140625 127.546875 C119.53868339 131.73047357 123.31041317 135.7737211 127.07397461 139.83178711 C130.30332121 143.32008836 133.46155287 146.8567168 136.5703125 150.453125 C139.15941208 153.38177862 141.81850931 156.24335677 144.4765625 159.109375 C148.23709409 163.16412911 151.94069345 167.25099204 155.5546875 171.4375 C158.73701103 175.03378431 162.02091066 178.53747675 165.30273438 182.04296875 C166.70790149 183.55229 168.09302515 185.08020214 169.4765625 186.609375 C170.01873423 187.13169842 170.56090596 187.65402184 171.11950713 188.19217324 C173.28311563 192.0460162 172.89071555 195.89197692 172.86132336 200.23772812 C172.86647326 201.2300421 172.87162317 202.22235608 172.87692913 203.24474019 C172.89063118 206.59636926 172.88283994 209.94761155 172.87528992 213.29925537 C172.88072491 215.71571902 172.88747459 218.13218001 172.89543182 220.54863667 C172.9097478 225.8160631 172.91471758 231.0833768 172.91155434 236.35081291 C172.90690088 244.18330692 172.91936584 252.01570775 172.93538407 259.84818341 C172.96184033 273.02275789 172.97434565 286.19731133 172.97894859 299.3719101 C172.98355266 312.41974006 172.99432761 325.46754078 173.01337624 338.51535797 C173.01455636 339.32609588 173.01573649 340.13683379 173.01695238 340.97213951 C173.02297765 345.08933008 173.02911349 349.20652048 173.03529189 353.32371083 C173.07887463 382.49916537 173.10857296 411.67461922 173.13012695 440.85009766 C173.15110038 469.19678802 173.17834989 497.54346098 173.21411133 525.89013672 C173.21576054 527.20038162 173.21576054 527.20038162 173.21744308 528.53709612 C173.22849124 537.30896675 173.23966717 546.08083721 173.2509367 554.85270755 C173.27389191 572.72262525 173.29599431 590.59254398 173.31758118 608.46246338 C173.3185748 609.28412524 173.31956841 610.1057871 173.32059214 610.9523478 C173.38686649 665.83800936 173.43319778 720.72369115 173.4765625 775.609375 C175.83304474 773.11154927 178.18630266 770.61070685 180.5390625 768.109375 C181.19583984 767.41328125 181.85261719 766.7171875 182.52929688 766 C186.42292294 761.85702842 190.2315136 757.65682972 193.95352173 753.3588562 C196.20539871 750.77217794 198.52619789 748.25526576 200.8515625 745.734375 C205.76574617 740.39419398 210.63136825 735.01228946 215.4765625 729.609375 C220.32177391 724.20644141 225.18868466 718.82576961 230.1015625 713.484375 C233.09836261 710.22547006 236.07570797 706.95437951 238.9765625 703.609375 C242.33978888 699.73120487 245.80991921 695.95409689 249.28466797 692.17626953 C253.71878977 687.35353589 258.10264661 682.48676322 262.4765625 677.609375 C267.32177391 672.20644141 272.18868466 666.82576961 277.1015625 661.484375 C280.09836261 658.22547006 283.07570797 654.95437951 285.9765625 651.609375 C289.33978888 647.73120487 292.80991921 643.95409689 296.28466797 640.17626953 C300.71878977 635.35353589 305.10264661 630.48676322 309.4765625 625.609375 C314.32177343 620.20644195 319.18864848 614.82573596 324.1015625 609.484375 C327.07874531 606.24720284 330.03609106 602.99799771 332.9140625 599.671875 C336.53868339 595.48827643 340.31041317 591.4450289 344.07397461 587.38696289 C346.75057288 584.49573372 349.39967429 581.59048096 351.9765625 578.609375 C355.06553557 575.03585714 358.26498463 571.57226386 361.4765625 568.109375 C365.26540407 564.02368769 368.99828197 559.90544131 372.64453125 555.69140625 C375.47520511 552.47445707 378.38423266 549.3296682 381.28491211 546.17602539 C385.71892289 541.35334597 390.10272328 536.48667773 394.4765625 531.609375 C399.32177391 526.20644141 404.18868466 520.82576961 409.1015625 515.484375 C412.65536235 511.61975425 416.15323265 507.71525475 419.58984375 503.74609375 C422.52911028 500.41735919 425.5479075 497.16148628 428.5703125 493.90820312 C431.34379754 490.90692464 433.96207306 487.83051253 436.4765625 484.609375 C440.68062994 486.20712035 443.24481385 489.33905086 446.1640625 492.609375 C446.69298096 493.19243408 447.22189941 493.77549316 447.7668457 494.3762207 C449.34243262 496.11557916 450.9100544 497.86184139 452.4765625 499.609375 C453.29125 500.51042969 454.1059375 501.41148437 454.9453125 502.33984375 C457.12856125 504.75756112 459.30371934 507.18230522 461.4765625 509.609375 C466.28183515 514.96876918 471.10721162 520.30809278 475.9765625 525.609375 C481.57950902 531.70932579 487.1186906 537.86498547 492.6484375 544.03125 C496.77300726 548.62385604 500.92278143 553.19116949 505.1015625 557.734375 C508.07874531 560.97154716 511.03609106 564.22075229 513.9140625 567.546875 C517.02620374 571.13896091 520.24528336 574.62489492 523.4765625 578.109375 C527.26538186 582.19508379 530.99828114 586.31330773 534.64453125 590.52734375 C537.47656973 593.74584377 540.38684198 596.89230911 543.28930664 600.04711914 C546.94113427 604.01828678 550.55359468 608.0231994 554.15625 612.0390625 C556.78736033 614.95365947 559.44308725 617.84476724 562.1015625 620.734375 C565.0787889 623.97150591 568.03609216 627.22075356 570.9140625 630.546875 C574.53868339 634.73047357 578.31041317 638.7737211 582.07397461 642.83178711 C584.75057288 645.72301628 587.39967429 648.62826904 589.9765625 651.609375 C593.53339288 655.72141793 597.23239934 659.6970712 600.92700195 663.68481445 C605.49266635 668.61601758 609.99408576 673.60244029 614.4765625 678.609375 C619.3212753 684.01275738 624.18890678 689.39278345 629.1015625 694.734375 C635.06252656 701.2215483 640.87005479 707.81360808 646.4765625 714.609375 C639.49377769 721.82491931 631.9163548 728.36635529 624.0390625 734.58203125 C619.46929221 738.19744403 614.98122092 741.91340701 610.4765625 745.609375 C608.64346088 747.10965817 606.81012823 748.60965908 604.9765625 750.109375 C604.06132813 750.85832031 603.14609375 751.60726562 602.203125 752.37890625 C600.44838466 753.81437435 598.69321095 755.24931296 596.9375 756.68359375 C591.2731546 761.31261318 585.62215697 765.95751406 579.9765625 770.609375 C573.48751249 775.95622704 566.98811417 781.28993818 560.4765625 786.609375 C558.64311214 788.10923196 556.80978079 789.6092344 554.9765625 791.109375 C551.30989583 794.109375 547.64322917 797.109375 543.9765625 800.109375 C543.06132813 800.85832031 542.14609375 801.60726562 541.203125 802.37890625 C539.44838466 803.81437435 537.69321095 805.24931296 535.9375 806.68359375 C530.2731546 811.31261318 524.62215697 815.95751406 518.9765625 820.609375 C512.48751249 825.95622704 505.98811417 831.28993818 499.4765625 836.609375 C497.64311214 838.10923196 495.80978079 839.6092344 493.9765625 841.109375 C491.2975633 843.30162646 488.61832042 845.49356968 485.9375 847.68359375 C480.2731546 852.31261318 474.62215697 856.95751406 468.9765625 861.609375 C462.48751249 866.95622704 455.98811417 872.28993818 449.4765625 877.609375 C447.64311214 879.10923196 445.80978079 880.6092344 443.9765625 882.109375 C440.30989583 885.109375 436.64322917 888.109375 432.9765625 891.109375 C432.06132813 891.85832031 431.14609375 892.60726562 430.203125 893.37890625 C428.44838466 894.81437435 426.69321095 896.24931296 424.9375 897.68359375 C419.2731546 902.31261318 413.62215697 906.95751406 407.9765625 911.609375 C401.48751249 916.95622704 394.98811417 922.28993818 388.4765625 927.609375 C386.64311214 929.10923196 384.80978079 930.6092344 382.9765625 932.109375 C379.30989583 935.109375 375.64322917 938.109375 371.9765625 941.109375 C371.06132812 941.85832031 370.14609375 942.60726562 369.203125 943.37890625 C367.44838466 944.81437435 365.69321095 946.24931296 363.9375 947.68359375 C358.2731546 952.31261318 352.62215697 956.95751406 346.9765625 961.609375 C340.48751249 966.95622704 333.98811417 972.28993818 327.4765625 977.609375 C325.64311214 979.10923196 323.80978079 980.6092344 321.9765625 982.109375 C314.64322917 988.109375 307.30989583 994.109375 299.9765625 1000.109375 C299.06132812 1000.85832031 298.14609375 1001.60726562 297.203125 1002.37890625 C295.44838466 1003.81437435 293.69321095 1005.24931296 291.9375 1006.68359375 C286.2731546 1011.31261318 280.62215697 1015.95751406 274.9765625 1020.609375 C267.61955539 1026.67140694 260.26044447 1032.73093716 252.85546875 1038.734375 C247.66423318 1042.95366661 242.54531215 1047.24452298 237.4765625 1051.609375 C231.5529556 1056.70663674 225.56548566 1061.70976008 219.4765625 1066.609375 C218.93531738 1067.05168457 218.39407227 1067.49399414 217.83642578 1067.94970703 C196.49712129 1085.37630407 174.91891785 1093.72106691 147.1953125 1092.2890625 C134.87077835 1090.84061501 123.42948173 1086.71078159 112.11807251 1081.8135376 C109.8242941 1080.82051236 107.52476801 1079.84197158 105.22338867 1078.86669922 C102.77949547 1077.83102962 100.33591997 1076.79469356 97.89405823 1075.75424194 C89.86291389 1072.33411489 81.7893101 1069.02117957 73.70785522 1065.72207642 C69.62278645 1064.05395985 65.53980906 1062.38074581 61.45703125 1060.70703125 C60.22884422 1060.20356422 60.22884422 1060.20356422 58.97584534 1059.68992615 C47.97394868 1055.17664387 36.98994985 1050.62005918 26.00927734 1046.05541992 C24.30437911 1045.34680122 22.5994637 1044.63822386 20.89453125 1043.9296875 C20.04777832 1043.57777847 19.20102539 1043.22586945 18.32861328 1042.86329651 C12.93777368 1040.62505814 7.5411835 1038.40126944 2.14031982 1036.18733215 C-1.54980625 1034.67428234 -5.23811227 1033.15682291 -8.92633057 1031.63912964 C-10.66367943 1030.92563046 -12.40188545 1030.2142139 -14.14105225 1029.50515747 C-22.68326894 1026.02174106 -31.13422991 1022.43882944 -39.3984375 1018.33203125 C-40.37194908 1017.84959206 -40.37194908 1017.84959206 -41.36512756 1017.35740662 C-46.63976571 1014.67903476 -51.09242375 1011.49516636 -55.5234375 1007.609375 C-56.2453125 1007.04089844 -56.9671875 1006.47242188 -57.7109375 1005.88671875 C-73.13547361 993.27394703 -82.20272077 973.9592014 -85.5234375 954.609375 C-86.0270557 949.1480464 -86.06042931 943.73575224 -86.02121544 938.25929642 C-86.02479083 936.67016518 -86.03011909 935.08103712 -86.03701717 933.49191684 C-86.05083474 929.15403006 -86.0400078 924.81651336 -86.02490499 920.47864406 C-86.0128938 915.74843492 -86.02424296 911.01827008 -86.03254664 906.2880609 C-86.04388943 898.00736292 -86.04044149 889.72677479 -86.0271759 881.44608116 C-86.0075042 869.13247388 -86.01081474 856.81894669 -86.0186765 844.50533004 C-86.03121646 823.78641659 -86.02489531 803.06754872 -86.00748825 782.34864044 C-85.99025375 761.83062568 -85.98044807 741.3126314 -85.98082352 720.79460907 C-85.98083881 719.51785232 -85.9808541 718.24109558 -85.98086985 716.92564923 C-85.98095167 711.74285279 -85.9810829 706.56005636 -85.98128148 701.37725993 C-85.9826294 665.21291848 -85.9771392 629.04858556 -85.95558739 592.88425064 C-85.95518151 592.20299927 -85.95477563 591.52174789 -85.95435745 590.81985254 C-85.94774031 579.75736841 -85.94074955 568.69488452 -85.93374002 557.63240064 C-85.90595727 513.7495579 -85.89267413 469.86673827 -85.89404297 425.98388672 C-85.89408375 424.59650043 -85.89412417 423.20911414 -85.89416425 421.82172785 C-85.89424461 419.05023022 -85.89432615 416.2787326 -85.89440846 413.50723497 C-85.89459131 407.2928149 -85.89476001 401.07839482 -85.89490164 394.86397473 C-85.89493318 393.48754358 -85.89496606 392.11111243 -85.8950003 390.73468128 C-85.89589101 353.95816194 -85.88694079 317.18164639 -85.87429583 280.40512919 C-85.87385529 279.12148372 -85.87341474 277.83783824 -85.87296085 276.51529442 C-85.87118439 271.35346383 -85.8694076 266.19163325 -85.86757894 261.02980268 C-85.86125907 243.0695604 -85.85824043 225.1093203 -85.85735596 207.14907698 C-85.85616203 184.00753031 -85.84817821 160.86600193 -85.82849304 137.72446308 C-85.81826127 125.48486162 -85.81344491 113.24528698 -85.81648541 101.00568146 C-85.81795385 92.83235117 -85.81215 84.65904699 -85.80039779 76.48572507 C-85.79389656 71.82760425 -85.79052506 67.16953965 -85.79591899 62.51141611 C-85.80075808 58.27085502 -85.79635153 54.03040618 -85.78468276 49.7898593 C-85.78209028 48.26830055 -85.78280803 46.74673147 -85.78731597 45.22517719 C-85.83733734 26.85714934 -83.1785305 11.57213802 -70.1484375 -2.140625 C-49.80858842 -21.37022031 -19.5490946 -18.52019488 0 0 Z " fill="#673C98" transform="translate(85.5234375,540.390625)"/>
<path d="M0 0 C4.20406744 1.59774535 6.76825135 4.72967586 9.6875 8 C10.21641846 8.58305908 10.74533691 9.16611816 11.2902832 9.7668457 C12.86587012 11.50620416 14.4334919 13.25246639 16 15 C17.22203125 16.35158203 17.22203125 16.35158203 18.46875 17.73046875 C20.65199875 20.14818612 22.82715684 22.57293022 25 25 C29.80527265 30.35939418 34.63064912 35.69871778 39.5 41 C45.10294652 47.09995079 50.6421281 53.25561047 56.171875 59.421875 C60.29644476 64.01448104 64.44621893 68.58179449 68.625 73.125 C71.60218281 76.36217216 74.55952856 79.61137729 77.4375 82.9375 C80.54964124 86.52958591 83.76872086 90.01551992 87 93.5 C90.78881936 97.58570879 94.52171864 101.70393273 98.16796875 105.91796875 C101.00000723 109.13646877 103.91027948 112.28293411 106.81274414 115.43774414 C110.46457177 119.40891178 114.07703218 123.4138244 117.6796875 127.4296875 C120.31079783 130.34428447 122.96652475 133.23539224 125.625 136.125 C128.6022264 139.36213091 131.55952966 142.61137856 134.4375 145.9375 C138.06212089 150.12109857 141.83385067 154.1643461 145.59741211 158.22241211 C148.27401038 161.11364128 150.92311179 164.01889404 153.5 167 C157.05683038 171.11204293 160.75583684 175.0876962 164.45043945 179.07543945 C169.01610385 184.00664258 173.51752326 188.99306529 178 194 C182.8447128 199.40338238 187.71234428 204.78340845 192.625 210.125 C198.58596406 216.6121733 204.39349229 223.20423308 210 230 C203.01721519 237.21554431 195.4397923 243.75698029 187.5625 249.97265625 C182.99272971 253.58806903 178.50465842 257.30403201 174 261 C172.16689838 262.50028317 170.33356573 264.00028408 168.5 265.5 C167.58476563 266.24894531 166.66953125 266.99789063 165.7265625 267.76953125 C163.97182216 269.20499935 162.21664845 270.63993796 160.4609375 272.07421875 C154.7965921 276.70323818 149.14559447 281.34813906 143.5 286 C137.01094999 291.34685204 130.51155167 296.68056318 124 302 C122.16654964 303.49985696 120.33321829 304.9998594 118.5 306.5 C114.83333333 309.5 111.16666667 312.5 107.5 315.5 C106.58476563 316.24894531 105.66953125 316.99789063 104.7265625 317.76953125 C102.97182216 319.20499935 101.21664845 320.63993796 99.4609375 322.07421875 C93.7965921 326.70323818 88.14559447 331.34813906 82.5 336 C76.01094999 341.34685204 69.51155167 346.68056318 63 352 C61.16654964 353.49985696 59.33321829 354.9998594 57.5 356.5 C54.8210008 358.69225146 52.14175792 360.88419468 49.4609375 363.07421875 C43.7965921 367.70323818 38.14559447 372.34813906 32.5 377 C26.01094999 382.34685204 19.51155167 387.68056318 13 393 C11.16654964 394.49985696 9.33321829 395.9998594 7.5 397.5 C3.83333333 400.5 0.16666667 403.5 -3.5 406.5 C-4.41523437 407.24894531 -5.33046875 407.99789063 -6.2734375 408.76953125 C-8.02817784 410.20499935 -9.78335155 411.63993796 -11.5390625 413.07421875 C-17.2034079 417.70323818 -22.85440553 422.34813906 -28.5 427 C-34.98905001 432.34685204 -41.48844833 437.68056318 -48 443 C-49.83345036 444.49985696 -51.66678171 445.9998594 -53.5 447.5 C-57.16666667 450.5 -60.83333333 453.5 -64.5 456.5 C-65.41523438 457.24894531 -66.33046875 457.99789063 -67.2734375 458.76953125 C-69.02817784 460.20499935 -70.78335155 461.63993796 -72.5390625 463.07421875 C-78.2034079 467.70323818 -83.85440553 472.34813906 -89.5 477 C-95.98905001 482.34685204 -102.48844833 487.68056318 -109 493 C-110.83345036 494.49985696 -112.66678171 495.9998594 -114.5 497.5 C-121.83333333 503.5 -129.16666667 509.5 -136.5 515.5 C-137.41523438 516.24894531 -138.33046875 516.99789062 -139.2734375 517.76953125 C-141.02817784 519.20499935 -142.78335155 520.63993796 -144.5390625 522.07421875 C-150.2034079 526.70323818 -155.85440553 531.34813906 -161.5 536 C-168.85700711 542.06203194 -176.21611803 548.12156216 -183.62109375 554.125 C-188.81232932 558.34429161 -193.93125035 562.63514798 -199 567 C-204.9236069 572.09726174 -210.91107684 577.10038508 -217 582 C-217.54124512 582.44230957 -218.08249023 582.88461914 -218.64013672 583.34033203 C-239.97944121 600.76692907 -261.55764465 609.11169191 -289.28125 607.6796875 C-301.60578415 606.23124001 -313.04708077 602.10140659 -324.35848999 597.2041626 C-326.6522684 596.21113736 -328.95179449 595.23259658 -331.25317383 594.25732422 C-333.69706703 593.22165462 -336.14064253 592.18531856 -338.58250427 591.14486694 C-346.61364861 587.72473989 -354.6872524 584.41180457 -362.76870728 581.11270142 C-366.85377605 579.44458485 -370.93675344 577.77137081 -375.01953125 576.09765625 C-375.8383226 575.76201157 -376.65711395 575.42636688 -377.50071716 575.08055115 C-388.50261382 570.56726887 -399.48661265 566.01068418 -410.46728516 561.44604492 C-412.17218339 560.73742622 -413.8770988 560.02884886 -415.58203125 559.3203125 C-416.85216064 558.79244896 -416.85216064 558.79244896 -418.14794922 558.25392151 C-423.53878882 556.01568314 -428.935379 553.79189444 -434.33624268 551.57795715 C-438.02636875 550.06490734 -441.71467477 548.54744791 -445.40289307 547.02975464 C-447.14024193 546.31625546 -448.87844795 545.6048389 -450.61761475 544.89578247 C-459.15983144 541.41236606 -467.61079241 537.82945444 -475.875 533.72265625 C-476.52400772 533.40103012 -477.17301544 533.07940399 -477.84169006 532.74803162 C-483.11632821 530.06965976 -487.56898625 526.88579136 -492 523 C-492.721875 522.43152344 -493.44375 521.86304688 -494.1875 521.27734375 C-509.60313657 508.67184926 -518.74295092 489.36463729 -522 470 C-522.26135079 465.96834272 -522.27475094 462.02968052 -522 458 C-520.41724917 460.97197754 -519.34371843 463.92402333 -518.3125 467.125 C-513.14318914 481.43121087 -503.42627668 489.16362511 -490.171875 495.6171875 C-480.39806073 499.87818535 -465.81711218 499.84922411 -455.8125 496.375 C-454.18378894 495.63514387 -452.57725263 494.84401478 -451 494 C-450.16726563 493.5875 -449.33453125 493.175 -448.4765625 492.75 C-439.34005018 487.80222718 -432.65604458 480.06499994 -425.9765625 472.26171875 C-423.37614938 469.28614721 -420.68856924 466.39582599 -418 463.5 C-414.2109182 459.41454275 -410.47827214 455.29605661 -406.83203125 451.08203125 C-404.00135739 447.86508207 -401.09232984 444.7202932 -398.19165039 441.56665039 C-393.75763061 436.74396118 -389.37474091 431.87650331 -385 427 C-383.50028872 425.33307353 -382.00028679 423.66640851 -380.5 422 C-379.38625 420.7625 -379.38625 420.7625 -378.25 419.5 C-371.5 412 -371.5 412 -369.2421875 409.4921875 C-367.76707382 407.85260121 -366.29308348 406.21200345 -364.8203125 404.5703125 C-360.69902273 399.97969436 -356.55129287 395.41550032 -352.375 390.875 C-349.39781719 387.63782784 -346.44047144 384.38862271 -343.5625 381.0625 C-339.93855356 376.87967989 -336.16744254 372.83728193 -332.40478516 368.77978516 C-329.15135213 365.26517971 -325.96591238 361.70391333 -322.83203125 358.08203125 C-320.00135739 354.86508207 -317.09232984 351.7202932 -314.19165039 348.56665039 C-309.75763061 343.74396118 -305.37474091 338.87650331 -301 334 C-298.74797293 331.49687583 -296.49507877 328.99453386 -294.2421875 326.4921875 C-292.76707382 324.85260121 -291.29308348 323.21200345 -289.8203125 321.5703125 C-285.69901807 316.97968917 -281.55094016 312.41582814 -277.375 307.875 C-272.27093262 302.31737316 -267.2706432 296.68780007 -262.3984375 290.92578125 C-256.39301147 283.84152405 -250.23191071 276.95195213 -243.86547852 270.18969727 C-240.44185316 266.55236365 -237.09389351 262.87310464 -233.8359375 259.0859375 C-231.27508113 256.17636877 -228.63587983 253.34154434 -226 250.5 C-222.7883665 247.03716632 -219.58897047 243.57351485 -216.5 240 C-213.41102693 236.42648214 -210.21157787 232.96288886 -207 229.5 C-203.21115843 225.41431269 -199.47828053 221.29606631 -195.83203125 217.08203125 C-193.00135739 213.86508207 -190.09232984 210.7202932 -187.19165039 207.56665039 C-182.75763961 202.74397097 -178.37383922 197.87730273 -174 193 C-169.15478859 187.59706641 -164.28787784 182.21639461 -159.375 176.875 C-156.37819989 173.61609506 -153.40085453 170.34500451 -150.5 167 C-147.13677362 163.12182987 -143.66664329 159.34472189 -140.19189453 155.56689453 C-135.75777273 150.74416089 -131.37391589 145.87738822 -127 141 C-122.15478907 135.59706695 -117.28791402 130.21636096 -112.375 124.875 C-109.39781719 121.63782784 -106.44047144 118.38862271 -103.5625 115.0625 C-99.93787911 110.87890143 -96.16614933 106.8356539 -92.40258789 102.77758789 C-89.72598962 99.88635872 -87.07688821 96.98110596 -84.5 94 C-81.41102693 90.42648214 -78.21157787 86.96288886 -75 83.5 C-71.21115843 79.41431269 -67.47828053 75.29606631 -63.83203125 71.08203125 C-61.00135739 67.86508207 -58.09232984 64.7202932 -55.19165039 61.56665039 C-50.75763961 56.74397097 -46.37383922 51.87730273 -42 47 C-37.15478859 41.59706641 -32.28787784 36.21639461 -27.375 30.875 C-23.82120015 27.01037925 -20.32332985 23.10587975 -16.88671875 19.13671875 C-13.94745222 15.80798419 -10.928655 12.55211128 -7.90625 9.29882812 C-5.13276496 6.29754964 -2.51448944 3.22113753 0 0 Z " fill="#7844B5" transform="translate(522,1025)"/>
<path d="M0 0 C-1.26051996 3.78155989 -2.56446606 4.25618367 -5.9375 6.25 C-7.28134766 7.06210937 -7.28134766 7.06210937 -8.65234375 7.890625 C-9.42707031 8.25671875 -10.20179687 8.6228125 -11 9 C-11.66 8.67 -12.32 8.34 -13 8 C-11.40320196 6.6578508 -9.79729803 5.32652885 -8.1875 4 C-6.84751953 2.88625 -6.84751953 2.88625 -5.48046875 1.75 C-3 0 -3 0 0 0 Z " fill="#AA7EE9" transform="translate(1439,20)"/>
<path d="M0 0 C3.57294032 1.32002058 6.63953492 2.89521388 9.8125 5 C10.60269531 5.515625 11.39289063 6.03125 12.20703125 6.5625 C12.79871094 7.036875 13.39039063 7.51125 14 8 C14 8.66 14 9.32 14 10 C10.19136032 8.65378455 7.34590149 6.94641263 4.1875 4.4375 C3.39730469 3.81746094 2.60710937 3.19742187 1.79296875 2.55859375 C0.90544922 1.78708984 0.90544922 1.78708984 0 1 C0 0.67 0 0.34 0 0 Z " fill="#A969E4" transform="translate(1424,2019)"/>
</svg>
