<?xml version="1.0" encoding="UTF-8"?>
<svg version="1.1" xmlns="http://www.w3.org/2000/svg" width="280" height="280">
<path d="M0 0 C3.0424786 1.40077284 4.88318177 3.49568068 7.18359375 5.9140625 C9.77762744 8.62512027 11.99440656 10.89210437 15.12109375 12.9765625 C15.12109375 13.6365625 15.12109375 14.2965625 15.12109375 14.9765625 C15.76046875 15.2446875 16.39984375 15.5128125 17.05859375 15.7890625 C19.12109375 16.9765625 19.12109375 16.9765625 20.12109375 19.9765625 C20.78109375 20.3065625 21.44109375 20.6365625 22.12109375 20.9765625 C22.78109375 21.3065625 23.44109375 21.6365625 24.12109375 21.9765625 C24.61609375 23.4615625 24.61609375 23.4615625 25.12109375 24.9765625 C25.78109375 25.3065625 26.44109375 25.6365625 27.12109375 25.9765625 C27.78109375 26.3065625 28.44109375 26.6365625 29.12109375 26.9765625 C29.61609375 28.4615625 29.61609375 28.4615625 30.12109375 29.9765625 C30.78109375 30.3065625 31.44109375 30.6365625 32.12109375 30.9765625 C32.78109375 31.3065625 33.44109375 31.6365625 34.12109375 31.9765625 C34.45109375 32.9665625 34.78109375 33.9565625 35.12109375 34.9765625 C37.12125841 36.18538346 37.12125841 36.18538346 39.12109375 36.9765625 C39.12109375 37.6365625 39.12109375 38.2965625 39.12109375 38.9765625 C39.76046875 39.2446875 40.39984375 39.5128125 41.05859375 39.7890625 C43.12109375 40.9765625 43.12109375 40.9765625 44.12109375 43.9765625 C44.78109375 44.3065625 45.44109375 44.6365625 46.12109375 44.9765625 C46.78109375 45.3065625 47.44109375 45.6365625 48.12109375 45.9765625 C48.45109375 46.9665625 48.78109375 47.9565625 49.12109375 48.9765625 C49.78109375 49.3065625 50.44109375 49.6365625 51.12109375 49.9765625 C51.78109375 50.3065625 52.44109375 50.6365625 53.12109375 50.9765625 C53.45109375 51.9665625 53.78109375 52.9565625 54.12109375 53.9765625 C54.78109375 54.3065625 55.44109375 54.6365625 56.12109375 54.9765625 C56.78109375 55.3065625 57.44109375 55.6365625 58.12109375 55.9765625 C58.45109375 56.9665625 58.78109375 57.9565625 59.12109375 58.9765625 C59.78109375 59.3065625 60.44109375 59.6365625 61.12109375 59.9765625 C61.78109375 60.3065625 62.44109375 60.6365625 63.12109375 60.9765625 C63.45109375 61.9665625 63.78109375 62.9565625 64.12109375 63.9765625 C64.78109375 64.3065625 65.44109375 64.6365625 66.12109375 64.9765625 C66.78109375 65.3065625 67.44109375 65.6365625 68.12109375 65.9765625 C68.45109375 66.9665625 68.78109375 67.9565625 69.12109375 68.9765625 C73.30917286 66.71693789 76.49421037 63.86668129 79.79760742 60.49536133 C80.34132492 59.9487233 80.88504242 59.40208527 81.44523621 58.83888245 C82.61892653 57.65761058 83.79030162 56.47403471 84.95958519 55.28840065 C86.8082677 53.41412265 88.66318703 51.5462244 90.51985168 49.67985535 C94.45506854 45.72182943 98.3823659 41.7560027 102.30859375 37.7890625 C106.86874366 33.18176492 111.43205369 28.57769339 116.00383949 23.98193932 C117.83489366 22.13788098 119.6598445 20.28792269 121.48466492 18.43769836 C122.60040319 17.31469945 123.71642073 16.19197791 124.83276367 15.06958008 C125.59565704 14.29118774 125.59565704 14.29118774 126.3739624 13.49707031 C127.58564131 12.28502537 128.84890436 11.12493217 130.12109375 9.9765625 C130.78109375 9.9765625 131.44109375 9.9765625 132.12109375 9.9765625 C132.52328125 9.0175 132.52328125 9.0175 132.93359375 8.0390625 C134.12109375 5.9765625 134.12109375 5.9765625 137.12109375 4.9765625 C137.43046875 4.3165625 137.73984375 3.6565625 138.05859375 2.9765625 C139.12109375 0.9765625 139.12109375 0.9765625 140.99769592 0.19624329 C141.69841721 0.12374863 142.39913849 0.05125397 143.12109375 -0.0234375 C145.51639268 1.93666764 147.55563319 3.85517329 149.6796875 6.08203125 C150.30585464 6.71764481 150.93202179 7.35325836 151.5771637 8.00813293 C153.58304604 10.04868373 155.57116786 12.1055456 157.55859375 14.1640625 C159.54571651 16.20126663 161.53634623 18.2349462 163.52931213 20.26643372 C164.7689391 21.53229786 166.00460419 22.80205756 167.23570251 24.07621765 C169.75390946 26.66639572 172.19374082 29.03377214 175.03930664 31.2746582 C175.72629639 31.83628662 176.41328613 32.39791504 177.12109375 32.9765625 C177.12109375 33.6365625 177.12109375 34.2965625 177.12109375 34.9765625 C177.65734375 35.1828125 178.19359375 35.3890625 178.74609375 35.6015625 C182.09426578 37.53997789 184.85024906 39.82218097 187.12109375 42.9765625 C187.24609375 45.7265625 187.24609375 45.7265625 186.12109375 47.9765625 C184.18359375 49.0390625 184.18359375 49.0390625 182.12109375 49.9765625 C181.43841237 51.30176753 180.77038965 52.63468432 180.12109375 53.9765625 C179.13109375 54.3065625 178.14109375 54.6365625 177.12109375 54.9765625 C176.79109375 55.6365625 176.46109375 56.2965625 176.12109375 56.9765625 C175.79109375 57.6365625 175.46109375 58.2965625 175.12109375 58.9765625 C174.13109375 59.3065625 173.14109375 59.6365625 172.12109375 59.9765625 C171.79109375 60.6365625 171.46109375 61.2965625 171.12109375 61.9765625 C170.79109375 62.6365625 170.46109375 63.2965625 170.12109375 63.9765625 C169.13109375 64.3065625 168.14109375 64.6365625 167.12109375 64.9765625 C166.79109375 65.6365625 166.46109375 66.2965625 166.12109375 66.9765625 C165.79109375 67.6365625 165.46109375 68.2965625 165.12109375 68.9765625 C164.13109375 69.3065625 163.14109375 69.6365625 162.12109375 69.9765625 C161.79109375 70.6365625 161.46109375 71.2965625 161.12109375 71.9765625 C160.79109375 72.6365625 160.46109375 73.2965625 160.12109375 73.9765625 C159.13109375 74.3065625 158.14109375 74.6365625 157.12109375 74.9765625 C156.79109375 75.6365625 156.46109375 76.2965625 156.12109375 76.9765625 C155.79109375 77.6365625 155.46109375 78.2965625 155.12109375 78.9765625 C154.13109375 79.3065625 153.14109375 79.6365625 152.12109375 79.9765625 C150.91227279 81.97672716 150.91227279 81.97672716 150.12109375 83.9765625 C149.46109375 83.9765625 148.80109375 83.9765625 148.12109375 83.9765625 C147.85296875 84.6159375 147.58484375 85.2553125 147.30859375 85.9140625 C146.12109375 87.9765625 146.12109375 87.9765625 143.12109375 88.9765625 C142.79109375 89.6365625 142.46109375 90.2965625 142.12109375 90.9765625 C141.79109375 91.6365625 141.46109375 92.2965625 141.12109375 92.9765625 C140.13109375 93.3065625 139.14109375 93.6365625 138.12109375 93.9765625 C137.79109375 94.6365625 137.46109375 95.2965625 137.12109375 95.9765625 C136.79109375 96.6365625 136.46109375 97.2965625 136.12109375 97.9765625 C135.13109375 98.3065625 134.14109375 98.6365625 133.12109375 98.9765625 C132.68603516 99.85828125 132.68603516 99.85828125 132.2421875 100.7578125 C130.7474132 103.71611147 128.69164251 105.32575416 126.18359375 107.4765625 C123.11497868 110.11584262 120.31862301 112.55334861 118.12109375 115.9765625 C118.12109375 116.6365625 118.12109375 117.2965625 118.12109375 117.9765625 C118.76046875 118.2446875 119.39984375 118.5128125 120.05859375 118.7890625 C122.12109375 119.9765625 122.12109375 119.9765625 123.12109375 122.9765625 C123.78109375 123.3065625 124.44109375 123.6365625 125.12109375 123.9765625 C125.78109375 124.3065625 126.44109375 124.6365625 127.12109375 124.9765625 C127.45109375 125.9665625 127.78109375 126.9565625 128.12109375 127.9765625 C129.45351438 128.64505146 130.78707441 129.31126962 132.12109375 129.9765625 C134.02368435 131.67664816 135.83740504 133.38886636 137.63989258 135.18896484 C138.17852936 135.71927811 138.71716614 136.24959137 139.27212524 136.79597473 C141.04625471 138.54605752 142.81267655 140.30366294 144.578125 142.0625 C145.80784079 143.28324966 147.03763416 144.50392118 148.26750183 145.72451782 C150.84083757 148.28137853 153.40975977 150.84258759 155.97631836 153.40625 C159.27130044 156.69583147 162.58215607 159.96893083 165.89714527 163.23833275 C168.44052177 165.7520316 170.9726349 168.2768451 173.50171471 170.8049202 C174.71811559 172.01710493 175.93865316 173.22515287 177.1633091 174.42899704 C178.87063159 176.10958214 180.56156764 177.80511325 182.24926758 179.50537109 C183.01667015 180.25052223 183.01667015 180.25052223 183.79957581 181.01072693 C187.10445095 184.38642292 187.10445095 184.38642292 187.17938232 187.04342651 C185.79021185 189.58097204 184.11768624 191.33854079 182.06030273 193.37792969 C181.19948593 194.2385199 180.33866913 195.09911011 179.45176697 195.98577881 C178.51635574 196.90570618 177.58094452 197.82563354 176.6171875 198.7734375 C175.65389299 199.7311347 174.69126026 200.68949797 173.72926331 201.64849854 C171.19916892 204.16715481 168.66019447 206.67667088 166.1192627 209.18438721 C163.52655698 211.74636982 160.94235419 214.31689751 158.35742188 216.88671875 C153.28693385 221.92506091 148.20701495 226.95379584 143.12109375 231.9765625 C139.30000025 230.20772518 136.92824297 227.95562027 133.99609375 224.9140625 C130.8800361 221.51202767 130.8800361 221.51202767 127.12109375 218.9765625 C127.12109375 218.3165625 127.12109375 217.6565625 127.12109375 216.9765625 C126.48171875 216.7084375 125.84234375 216.4403125 125.18359375 216.1640625 C123.12109375 214.9765625 123.12109375 214.9765625 122.12109375 211.9765625 C121.46109375 211.6465625 120.80109375 211.3165625 120.12109375 210.9765625 C118.12109375 209.9765625 118.12109375 209.9765625 117.12109375 206.9765625 C116.46109375 206.6465625 115.80109375 206.3165625 115.12109375 205.9765625 C113.12109375 204.9765625 113.12109375 204.9765625 112.12109375 201.9765625 C111.46109375 201.6465625 110.80109375 201.3165625 110.12109375 200.9765625 C108.12109375 199.9765625 108.12109375 199.9765625 107.12109375 196.9765625 C105.12092909 195.76774154 105.12092909 195.76774154 103.12109375 194.9765625 C103.12109375 194.3165625 103.12109375 193.6565625 103.12109375 192.9765625 C102.48171875 192.7084375 101.84234375 192.4403125 101.18359375 192.1640625 C99.12109375 190.9765625 99.12109375 190.9765625 98.12109375 187.9765625 C97.46109375 187.6465625 96.80109375 187.3165625 96.12109375 186.9765625 C94.12109375 185.9765625 94.12109375 185.9765625 93.12109375 182.9765625 C92.46109375 182.6465625 91.80109375 182.3165625 91.12109375 181.9765625 C89.12109375 180.9765625 89.12109375 180.9765625 88.12109375 177.9765625 C87.46109375 177.6465625 86.80109375 177.3165625 86.12109375 176.9765625 C84.12109375 175.9765625 84.12109375 175.9765625 83.12109375 172.9765625 C82.46109375 172.6465625 81.80109375 172.3165625 81.12109375 171.9765625 C79.12109375 170.9765625 79.12109375 170.9765625 78.12109375 167.9765625 C77.46109375 167.6465625 76.80109375 167.3165625 76.12109375 166.9765625 C74.12109375 165.9765625 74.12109375 165.9765625 73.12109375 162.9765625 C69.95441236 163.55635532 68.32068355 164.40364164 66.05853271 166.67835999 C65.48087158 167.25189713 64.90321045 167.82543427 64.30804443 168.41635132 C63.68657532 169.04860626 63.0651062 169.68086121 62.42480469 170.33227539 C61.76097778 170.99566422 61.09715088 171.65905304 60.41320801 172.34254456 C58.22010963 174.53773347 56.03782917 176.7433586 53.85546875 178.94921875 C52.33726358 180.4730189 50.81839485 181.99615819 49.29888916 183.5186615 C45.3006706 187.5283364 41.31154264 191.54693876 37.32421875 195.56744385 C33.25413274 199.66821348 29.17554482 203.76050755 25.09765625 207.85351562 C17.0971079 215.88624209 9.10613415 223.92842206 1.12109375 231.9765625 C-1.66292991 230.70623935 -3.69546846 229.40474445 -5.83984375 227.22680664 C-6.38721191 226.67605972 -6.93458008 226.12531281 -7.49853516 225.55787659 C-8.07780762 224.9651445 -8.65708008 224.37241241 -9.25390625 223.76171875 C-9.86024902 223.15017441 -10.4665918 222.53863007 -11.09130859 221.90855408 C-13.02532732 219.95675395 -14.95252567 217.99839939 -16.87890625 216.0390625 C-18.80612873 214.08416388 -20.73480939 212.13076266 -22.66650391 210.18028259 C-23.86690218 208.96769253 -25.06461727 207.75243876 -26.25927734 206.53419495 C-28.52520085 204.24123561 -30.67911114 202.12415137 -33.27734375 200.20483398 C-33.80585937 199.79950439 -34.334375 199.3941748 -34.87890625 198.9765625 C-34.87890625 198.3165625 -34.87890625 197.6565625 -34.87890625 196.9765625 C-35.4615625 196.72132813 -36.04421875 196.46609375 -36.64453125 196.203125 C-39.09278848 194.85915163 -40.69633873 193.35845954 -42.62890625 191.3515625 C-43.2425 190.71992188 -43.85609375 190.08828125 -44.48828125 189.4375 C-44.9471875 188.95539063 -45.40609375 188.47328125 -45.87890625 187.9765625 C-44.47058976 183.49555549 -42.29067358 181.15029955 -38.87890625 177.9765625 C-38.05390625 177.1515625 -37.22890625 176.3265625 -36.37890625 175.4765625 C-30.54557292 169.64322917 -24.71223958 163.80989583 -18.87890625 157.9765625 C-17.73421875 156.8009375 -17.73421875 156.8009375 -16.56640625 155.6015625 C-14.43154955 153.51635363 -12.27422136 151.59317419 -10.00390625 149.6640625 C-6.51566626 146.65357395 -3.57545954 143.39968802 -0.6015625 139.890625 C1.53698411 137.5144621 3.86379939 135.5013538 6.34765625 133.49609375 C8.7372906 131.44858767 10.90782508 129.21295487 13.12109375 126.9765625 C14.42820312 125.70425781 14.42820312 125.70425781 15.76171875 124.40625 C16.6228125 123.56320313 17.48390625 122.72015625 18.37109375 121.8515625 C19.2425 121.00335938 20.11390625 120.15515625 21.01171875 119.28125 C23.31227004 117.0817648 23.31227004 117.0817648 24.12109375 113.9765625 C23.48171875 113.7084375 22.84234375 113.4403125 22.18359375 113.1640625 C20.12109375 111.9765625 20.12109375 111.9765625 19.12109375 108.9765625 C18.13109375 108.4815625 18.13109375 108.4815625 17.12109375 107.9765625 C15.12109375 106.9765625 15.12109375 106.9765625 14.12109375 103.9765625 C13.55585999 103.69539581 12.99062622 103.41422913 12.40826416 103.12454224 C9.22746528 101.52803126 6.99712661 99.11453228 4.52636719 96.60888672 C3.97958313 96.06239471 3.43279907 95.51590271 2.8694458 94.95285034 C1.06833726 93.15035157 -0.72558872 91.34087854 -2.51953125 89.53125 C-3.7689112 88.27813883 -5.01873426 87.02546931 -6.26898193 85.77322388 C-9.55477497 82.47980295 -12.83451695 79.18041959 -16.11303711 75.87976074 C-19.46104878 72.51127256 -22.81474532 69.1484549 -26.16796875 65.78515625 C-32.74385921 59.18783074 -39.31337141 52.58419267 -45.87890625 45.9765625 C-44.5446996 43.21395009 -43.29806561 41.14030124 -41.12890625 38.9609375 C-40.60296875 38.43242188 -40.07703125 37.90390625 -39.53515625 37.359375 C-38.98859375 36.82054687 -38.44203125 36.28171875 -37.87890625 35.7265625 C-37.0590625 34.89511719 -37.0590625 34.89511719 -36.22265625 34.046875 C-32.13229295 29.9765625 -32.13229295 29.9765625 -29.87890625 29.9765625 C-29.61078125 29.3371875 -29.34265625 28.6978125 -29.06640625 28.0390625 C-27.87890625 25.9765625 -27.87890625 25.9765625 -24.87890625 24.9765625 C-24.54890625 24.3165625 -24.21890625 23.6565625 -23.87890625 22.9765625 C-22.87890625 20.9765625 -22.87890625 20.9765625 -19.87890625 19.9765625 C-19.54890625 19.3165625 -19.21890625 18.6565625 -18.87890625 17.9765625 C-17.87890625 15.9765625 -17.87890625 15.9765625 -14.87890625 14.9765625 C-14.54890625 14.3165625 -14.21890625 13.6565625 -13.87890625 12.9765625 C-12.87890625 10.9765625 -12.87890625 10.9765625 -9.87890625 9.9765625 C-9.61078125 9.4196875 -9.34265625 8.8628125 -9.06640625 8.2890625 C-7.9028485 6.02318689 -6.72747854 4.52154642 -5.00390625 2.6640625 C-4.51148438 2.13167969 -4.0190625 1.59929688 -3.51171875 1.05078125 C-1.87890625 -0.0234375 -1.87890625 -0.0234375 0 0 Z " fill="#040404" transform="translate(68.87890625,24.0234375)"/>
<path d="M0 0 C2.94209835 1.32710259 5.01614431 2.76789991 7.29034424 5.04983521 C7.9184903 5.67523193 8.54663635 6.30062866 9.19381714 6.94497681 C9.87139069 7.62974091 10.54896423 8.314505 11.24707031 9.02001953 C11.96941864 9.74207581 12.69176697 10.46413208 13.43600464 11.20806885 C15.82148279 13.59493989 18.19979939 15.9888162 20.578125 18.3828125 C22.23107002 20.03948779 23.88445727 21.69572195 25.53826904 23.35153198 C29.88936088 27.71025917 34.23441313 32.07495924 38.57824707 36.44091797 C43.01208371 40.89521505 47.45158909 45.34385418 51.890625 49.79296875 C60.5993166 58.52310855 69.30164008 67.25956694 78 76 C80.94209835 74.67289741 83.01614431 73.23210009 85.29034424 70.95016479 C85.9184903 70.32476807 86.54663635 69.69937134 87.19381714 69.05502319 C87.87139069 68.37025909 88.54896423 67.685495 89.24707031 66.97998047 C89.96941864 66.25792419 90.69176697 65.53586792 91.43600464 64.79193115 C93.82148279 62.40506011 96.19979939 60.0111838 98.578125 57.6171875 C100.23107002 55.96051221 101.88445727 54.30427805 103.53826904 52.64846802 C107.88936088 48.28974083 112.23441313 43.92504076 116.57824707 39.55908203 C121.01208371 35.10478495 125.45158909 30.65614582 129.890625 26.20703125 C138.5993166 17.47689145 147.30164008 8.74043306 156 0 C158.31 1.65 160.62 3.3 163 5 C161.67289741 7.94209835 160.23210009 10.01614431 157.95016479 12.29034424 C157.32476807 12.9184903 156.69937134 13.54663635 156.05502319 14.19381714 C155.37025909 14.87139069 154.685495 15.54896423 153.97998047 16.24707031 C153.25792419 16.96941864 152.53586792 17.69176697 151.79193115 18.43600464 C149.40506011 20.82148279 147.0111838 23.19979939 144.6171875 25.578125 C142.96051221 27.23107002 141.30427805 28.88445727 139.64846802 30.53826904 C135.28974083 34.88936088 130.92504076 39.23441313 126.55908203 43.57824707 C122.10478495 48.01208371 117.65614582 52.45158909 113.20703125 56.890625 C104.47689145 65.5993166 95.74043306 74.30164008 87 83 C88.32710259 85.94209835 89.76789991 88.01614431 92.04983521 90.29034424 C92.67523193 90.9184903 93.30062866 91.54663635 93.94497681 92.19381714 C94.62974091 92.87139069 95.314505 93.54896423 96.02001953 94.24707031 C96.74207581 94.96941864 97.46413208 95.69176697 98.20806885 96.43600464 C100.59493989 98.82148279 102.9888162 101.19979939 105.3828125 103.578125 C107.03948779 105.23107002 108.69572195 106.88445727 110.35153198 108.53826904 C114.71025917 112.88936088 119.07495924 117.23441313 123.44091797 121.57824707 C127.89521505 126.01208371 132.34385418 130.45158909 136.79296875 134.890625 C145.52310855 143.5993166 154.25956694 152.30164008 163 161 C161.35 162.98 159.7 164.96 158 167 C154.69498288 166.41630012 153.06447287 165.43725079 150.70965576 163.07041931 C149.76743668 162.13438622 149.76743668 162.13438622 148.80618286 161.17944336 C148.12860931 160.49108398 147.45103577 159.80272461 146.75292969 159.09350586 C146.03058136 158.37159561 145.30823303 157.64968536 144.56399536 156.90589905 C142.17610992 154.51592217 139.79902831 152.11549153 137.421875 149.71484375 C135.7691481 148.05652219 134.11575798 146.39886136 132.46173096 144.74183655 C128.10841424 140.37706095 123.76418126 136.00335136 119.42175293 131.62774658 C114.98972478 127.1650403 110.5492007 122.71080576 106.109375 118.25585938 C97.39789433 109.5121961 88.6959826 100.75907506 80 92 C74.63032213 93.48825953 71.52286689 97.07502435 67.73120117 100.92822266 C67.01846039 101.64052536 66.3057196 102.35282806 65.57138062 103.0867157 C63.22139428 105.43878912 60.8822078 107.80130421 58.54296875 110.1640625 C56.91409212 111.79853533 55.28455112 113.43234631 53.65437317 115.06552124 C49.36846813 119.36287299 45.09164915 123.66915817 40.81665039 127.97735596 C36.45157075 132.37313992 32.07797155 136.76042901 27.70507812 141.1484375 C19.12835176 149.75732501 10.56119875 158.37567268 2 167 C-0.8605891 165.64062915 -2.85927699 164.35479531 -5 162 C-3.40091024 158.03887307 -0.65051808 155.3749362 2.33251953 152.42456055 C2.87591476 151.87926697 3.41931 151.33397339 3.97917175 150.77215576 C5.77553733 148.97208859 7.57900045 147.17932151 9.3828125 145.38671875 C10.63910808 144.13161626 11.89503314 142.87614279 13.15060425 141.62031555 C15.7854719 138.98701213 18.42366358 136.35710074 21.06445312 133.72973633 C24.4317384 130.37936191 27.7924834 127.02252246 31.15094185 123.66330242 C33.74676292 121.0677549 36.3451952 118.47483469 38.94448471 115.882761 C40.18329459 114.64711152 41.42151891 113.41087466 42.65912247 112.17401695 C54.34367053 100.50420445 54.34367053 100.50420445 60.4447937 95.33282471 C62.74815013 93.35882913 64.87273018 91.22300841 67 89.0625 C67.763125 88.29035156 68.52625 87.51820313 69.3125 86.72265625 C69.869375 86.15417969 70.42625 85.58570313 71 85 C69.67289741 82.05790165 68.23210009 79.98385569 65.95016479 77.70965576 C65.32476807 77.0815097 64.69937134 76.45336365 64.05502319 75.80618286 C63.37025909 75.12860931 62.685495 74.45103577 61.97998047 73.75292969 C61.25792419 73.03058136 60.53586792 72.30823303 59.79193115 71.56399536 C57.40506011 69.17851721 55.0111838 66.80020061 52.6171875 64.421875 C50.96051221 62.76892998 49.30427805 61.11554273 47.64846802 59.46173096 C43.28974083 55.11063912 38.92504076 50.76558687 34.55908203 46.42175293 C30.10478495 41.98791629 25.65614582 37.54841091 21.20703125 33.109375 C12.47689145 24.4006834 3.74043306 15.69835992 -5 7 C-3.64062915 4.1394109 -2.35479531 2.14072301 0 0 Z " fill="#F6F6F6" transform="translate(61,56)"/>
<path d="M0 0 C0.66 0.33 1.32 0.66 2 1 C0.88200014 2.33920838 -0.24461897 3.67122556 -1.375 5 C-2.00148438 5.7425 -2.62796875 6.485 -3.2734375 7.25 C-4.12808594 8.11625 -4.12808594 8.11625 -5 9 C-5.66 9 -6.32 9 -7 9 C-5.44499019 5.18315774 -2.96404505 2.80804268 0 0 Z " fill="#2C2C2C" transform="translate(31,201)"/>
</svg>
